<svg width="593" height="366" viewBox="0 0 593 366" fill="none" xmlns="http://www.w3.org/2000/svg">
<path d="M6.96 315.45C3.12 315.45 0 318.57 0 322.41C0 326.25 3.12 329.37 6.96 329.37C10.8 329.37 13.92 326.25 13.92 322.41C13.92 318.57 10.8 315.45 6.96 315.45Z" fill="white"/>
<path d="M23.3199 315.45C19.4799 315.45 16.3599 318.57 16.3599 322.41C16.3599 326.25 19.4799 329.37 23.3199 329.37C27.1599 329.37 30.2799 326.25 30.2799 322.41C30.2799 318.57 27.1599 315.45 23.3199 315.45Z" fill="white"/>
<path d="M39.6802 315.45C35.8402 315.45 32.7202 318.57 32.7202 322.41C32.7202 326.25 35.8402 329.37 39.6802 329.37C43.5202 329.37 46.6402 326.25 46.6402 322.41C46.6402 318.57 43.5202 315.45 39.6802 315.45Z" fill="white"/>
<path d="M23.3199 331.81C19.4799 331.81 16.3599 334.93 16.3599 338.77C16.3599 342.61 19.4799 345.73 23.3199 345.73C27.1599 345.73 30.2799 342.61 30.2799 338.77C30.2799 334.93 27.1599 331.81 23.3199 331.81Z" fill="white"/>
<path d="M23.3199 348.17C19.4799 348.17 16.3599 351.29 16.3599 355.13C16.3599 358.97 19.4799 362.09 23.3199 362.09C27.1599 362.09 30.2799 358.97 30.2799 355.13C30.2799 351.29 27.1599 348.17 23.3199 348.17Z" fill="white"/>
<path d="M71.99 329.48H55V333.35H61.49V351.11H65.5V333.35H71.99V329.48Z" fill="white"/>
<path d="M74.1198 341.84C74.5798 339.83 75.9398 338.29 78.2898 338.29C80.4798 338.29 81.8098 339.84 82.1498 341.84H74.1198ZM78.2898 335.04C73.6598 335.04 70.2598 338.44 70.2598 343.23C70.2598 348.02 73.6598 351.42 78.2898 351.42C83.2598 351.42 85.2098 347.71 85.5498 346.48H81.5298C81.2198 347.13 80.1098 348.18 78.2898 348.18C76.0998 348.18 74.4598 346.67 74.1198 344.47H85.8598L85.9198 344.04C85.9498 343.76 86.0098 343.39 86.0098 342.93C86.0098 338.45 82.6098 335.05 78.2898 335.05" fill="white"/>
<path d="M92.1901 329.48H88.3301V351.11H92.1901V329.48Z" fill="white"/>
<path d="M98.3698 341.84C98.8298 339.83 100.19 338.29 102.54 338.29C104.73 338.29 106.06 339.84 106.4 341.84H98.3698ZM102.54 335.04C97.9098 335.04 94.5098 338.44 94.5098 343.23C94.5098 348.02 97.9098 351.42 102.54 351.42C107.51 351.42 109.46 347.71 109.8 346.48H105.78C105.47 347.13 104.36 348.18 102.54 348.18C100.35 348.18 98.7098 346.67 98.3698 344.47H110.11L110.17 344.04C110.2 343.76 110.26 343.39 110.26 342.93C110.26 338.45 106.86 335.05 102.54 335.05" fill="white"/>
<path d="M121.07 329.17H117.67C115.32 329.17 113.81 330.68 113.81 333.03V335.35H111.18V339.06H113.81V351.11H117.67V339.06H121.07V335.35H117.67V333.65C117.67 333.03 118.13 332.57 118.75 332.57H121.07V329.17Z" fill="white"/>
<path d="M129.68 347.87C127.36 347.87 125.51 346.02 125.51 343.24C125.51 340.46 127.36 338.61 129.68 338.61C132 338.61 133.85 340.46 133.85 343.24C133.85 346.02 132 347.87 129.68 347.87ZM129.68 335.05C125.05 335.05 121.65 338.45 121.65 343.24C121.65 348.03 125.05 351.43 129.68 351.43C134.31 351.43 137.71 348.03 137.71 343.24C137.71 338.45 134.31 335.05 129.68 335.05Z" fill="white"/>
<path d="M148.37 335.04C146.89 335.04 145.81 335.5 145.09 335.97C144.69 336.25 144.32 336.56 144.04 336.9H143.88L143.57 335.35H140.02V351.11H143.88V342C143.88 339.99 145.27 338.6 147.28 338.6C149.29 338.6 150.68 339.99 150.68 342V351.11H154.54V341.69C154.54 337.68 151.92 335.05 148.36 335.05" fill="white"/>
<path d="M171.72 335.04C167.09 335.04 163.69 338.44 163.69 343.23C163.69 348.02 167.09 351.42 171.72 351.42C176.69 351.42 178.64 347.71 179.14 345.24H175.28C174.94 346.32 174.04 347.87 171.73 347.87C169.42 347.87 167.56 346.02 167.56 343.24C167.56 340.46 169.41 338.61 171.73 338.61C174.05 338.61 174.94 340.18 175.28 341.08H179.14C178.65 338.76 176.7 335.06 171.72 335.06" fill="white"/>
<path d="M186.79 348.33C185.21 348.33 184.32 347.56 184.32 346.32C184.32 345.08 185.25 344.31 187.26 344.31H190.5V344.77C190.5 346.96 189.14 348.32 186.79 348.32M187.72 335.03C183.52 335.03 181.42 337.53 181.08 340.13H184.94C185.09 339.23 185.99 338.12 187.72 338.12C189.45 338.12 190.5 339.32 190.5 341.05V341.36H186.95C182.62 341.36 180.46 343.52 180.46 346.61C180.46 349.21 182.59 351.4 186.18 351.4C187.76 351.4 188.84 350.94 189.58 350.47C190.01 350.19 190.38 349.88 190.66 349.54H190.82L191.13 351.08H194.37V341.04C194.37 337.67 191.75 335.02 187.73 335.02" fill="white"/>
<path d="M161.37 335.35H157.51V351.11H161.37V335.35Z" fill="white"/>
<path d="M159.44 328.52C158.18 328.52 157.15 329.54 157.15 330.81C157.15 332.08 158.17 333.1 159.44 333.1C160.71 333.1 161.73 332.08 161.73 330.81C161.73 329.54 160.71 328.52 159.44 328.52Z" fill="white"/>
<path d="M135.09 328.71H131.07L128.14 333.19H131.38L135.09 328.71Z" fill="white"/>
<path d="M292.61 334.17L294.53 332.75C295.08 333.78 295.82 334.21 296.62 334.21C297.85 334.21 298.5 333.54 298.5 331.61V322.31H301.31V331.84C301.31 334.48 299.98 336.64 296.96 336.64C294.91 336.64 293.54 335.81 292.61 334.17Z" fill="white"/>
<path d="M304.34 332.39V325.74H307.13V332.03C307.13 333.66 307.58 334.25 308.61 334.25C309.48 334.25 310.05 333.87 310.78 332.92V325.74H313.57V336.37H311.29L311.08 334.85H311C310.09 335.93 309.06 336.63 307.62 336.63C305.32 336.63 304.33 335.03 304.33 332.38" fill="white"/>
<path d="M316.55 325.74H318.83L319.04 327.14H319.1C320.03 326.23 321.11 325.47 322.55 325.47C324.85 325.47 325.84 327.07 325.84 329.74V336.37H323.05V330.08C323.05 328.43 322.59 327.86 321.55 327.86C320.68 327.86 320.13 328.28 319.35 329.06V336.37H316.56V325.74H316.55Z" fill="white"/>
<path d="M329.12 332.65V327.94H327.62V325.87L329.27 325.74L329.59 322.87H331.91V325.74H334.53V327.94H331.91V332.65C331.91 333.86 332.4 334.44 333.35 334.44C333.69 334.44 334.11 334.33 334.4 334.21L334.86 336.24C334.29 336.43 333.55 336.64 332.62 336.64C330.09 336.64 329.13 335.03 329.13 332.65" fill="white"/>
<path d="M341.86 333.41V331.26C339.26 331.58 338.38 332.3 338.38 333.25C338.38 334.09 338.97 334.45 339.79 334.45C340.61 334.45 341.18 334.07 341.86 333.41ZM335.73 333.49C335.73 331.21 337.57 330.01 341.86 329.56C341.8 328.52 341.35 327.72 340.04 327.72C339.05 327.72 338.1 328.16 337.11 328.73L336.1 326.89C337.35 326.11 338.87 325.49 340.54 325.49C343.24 325.49 344.62 327.1 344.62 330.18V336.39H342.34L342.15 335.25H342.07C341.14 336.05 340.08 336.65 338.86 336.65C336.96 336.65 335.71 335.3 335.71 333.5" fill="white"/>
<path d="M299.89 353.65V348.98C299.24 348.39 298.56 348.18 297.9 348.18C296.7 348.18 295.7 349.32 295.7 351.45C295.7 353.58 296.5 354.75 297.9 354.75C298.64 354.75 299.27 354.45 299.89 353.65ZM292.83 351.47C292.83 348.01 295 345.89 297.29 345.89C298.49 345.89 299.23 346.35 299.99 347.05L299.89 345.38V341.64H302.66V356.79H300.4L300.19 355.69H300.11C299.33 356.45 298.27 357.06 297.17 357.06C294.53 357.06 292.82 354.97 292.82 351.48" fill="white"/>
<path d="M312.01 350.38C312.01 348.96 311.36 348.05 310 348.05C308.88 348.05 307.89 348.85 307.68 350.38H312.01ZM305 351.46C305 348.02 307.43 345.88 309.96 345.88C312.88 345.88 314.4 348.03 314.4 350.95C314.4 351.48 314.34 352 314.27 352.24H307.72C307.95 353.99 309.09 354.9 310.66 354.9C311.53 354.9 312.29 354.63 313.05 354.16L314 355.87C312.96 356.59 311.61 357.05 310.3 357.05C307.32 357.05 305 354.98 305 351.47" fill="white"/>
<path d="M323.88 350.99H327.22L326.8 349.45C326.36 347.99 325.98 346.37 325.59 344.85H325.5C325.14 346.39 324.72 347.98 324.3 349.45L323.88 350.99ZM323.94 342.71H327.24L331.76 356.78H328.82L327.83 353.17H323.27L322.28 356.78H319.43L323.93 342.71H323.94Z" fill="white"/>
<path d="M333.18 346.15H335.46L335.67 347.55H335.73C336.66 346.64 337.74 345.88 339.19 345.88C341.49 345.88 342.48 347.48 342.48 350.15V356.78H339.69V350.49C339.69 348.84 339.23 348.27 338.19 348.27C337.32 348.27 336.77 348.69 335.99 349.47V356.78H333.2V346.15H333.18Z" fill="white"/>
<path d="M351.81 353.65V348.98C351.16 348.39 350.48 348.18 349.82 348.18C348.62 348.18 347.62 349.32 347.62 351.45C347.62 353.58 348.42 354.75 349.82 354.75C350.56 354.75 351.19 354.45 351.81 353.65ZM344.75 351.47C344.75 348.01 346.92 345.89 349.21 345.89C350.41 345.89 351.15 346.35 351.91 347.05L351.81 345.38V341.64H354.58V356.79H352.32L352.11 355.69H352.03C351.25 356.45 350.19 357.06 349.09 357.06C346.45 357.06 344.74 354.97 344.74 351.48" fill="white"/>
<path d="M363.18 353.82V351.67C360.58 351.99 359.71 352.71 359.71 353.66C359.71 354.5 360.3 354.86 361.11 354.86C361.92 354.86 362.5 354.48 363.18 353.82ZM357.05 353.9C357.05 351.62 358.89 350.42 363.18 349.97C363.12 348.93 362.67 348.13 361.36 348.13C360.37 348.13 359.42 348.57 358.43 349.14L357.42 347.3C358.67 346.52 360.19 345.9 361.86 345.9C364.56 345.9 365.94 347.51 365.94 350.59V356.8H363.66L363.47 355.66H363.39C362.46 356.46 361.4 357.06 360.18 357.06C358.28 357.06 357.03 355.71 357.03 353.91" fill="white"/>
<path d="M368.8 353.8V341.63H371.59V353.92C371.59 354.57 371.87 354.77 372.14 354.77C372.25 354.77 372.33 354.77 372.52 354.73L372.86 356.8C372.54 356.93 372.08 357.05 371.42 357.05C369.48 357.05 368.8 355.78 368.8 353.8Z" fill="white"/>
<path d="M374.67 352.79V346.14H377.46V352.43C377.46 354.06 377.92 354.65 378.94 354.65C379.81 354.65 380.38 354.27 381.11 353.32V346.14H383.9V356.77H381.62L381.41 355.25H381.33C380.42 356.33 379.39 357.03 377.95 357.03C375.65 357.03 374.66 355.43 374.66 352.78" fill="white"/>
<path d="M386.21 351.46C386.21 347.93 388.75 345.88 391.64 345.88C392.95 345.88 393.96 346.39 394.73 347.06L393.4 348.86C392.87 348.4 392.37 348.16 391.79 348.16C390.16 348.16 389.06 349.47 389.06 351.46C389.06 353.45 390.18 354.76 391.7 354.76C392.46 354.76 393.18 354.4 393.77 353.91L394.89 355.75C393.86 356.64 392.57 357.04 391.4 357.04C388.46 357.04 386.22 354.99 386.22 351.46" fill="white"/>
<path d="M396.98 343.09L400.21 339.24L402.13 341.1L398.37 344.44L396.98 343.09ZM396.89 346.15H399.68V356.78H396.89V346.15Z" fill="white"/>
<path d="M408.26 353.82V351.67C405.66 351.99 404.79 352.71 404.79 353.66C404.79 354.5 405.38 354.86 406.19 354.86C407 354.86 407.58 354.48 408.26 353.82ZM402.13 353.9C402.13 351.62 403.97 350.42 408.26 349.97C408.2 348.93 407.75 348.13 406.44 348.13C405.45 348.13 404.5 348.57 403.51 349.14L402.5 347.3C403.75 346.52 405.27 345.9 406.94 345.9C409.64 345.9 411.02 347.51 411.02 350.59V356.8H408.74L408.55 355.66H408.47C407.54 356.46 406.48 357.06 405.26 357.06C403.36 357.06 402.11 355.71 402.11 353.91" fill="white"/>
<path d="M264.62 314.09H254.76L231.55 363.46H241.41L264.62 314.09Z" fill="white"/>
<path d="M274.38 363.46H284.31C278.96 355.43 269.83 350.14 259.45 350.14C257.86 350.14 256.29 350.27 254.76 350.51V358.23C256.28 357.9 257.86 357.72 259.48 357.72C265.21 357.72 270.44 359.89 274.38 363.46Z" fill="white"/>
<path d="M284.22 363.33H284.24L264.62 314.08L259.27 325.46L269.78 351.97C275.7 354.16 280.74 358.17 284.21 363.33" fill="white"/>
<path d="M16.38 199.22C13.91 203.96 12.47 210.36 12.47 215.79C12.47 224.05 15.84 226.87 21.07 226.87C26.3 226.87 29.87 223.91 32.35 219.23C34.82 214.49 36.26 208.02 36.26 202.65C36.26 194.33 32.83 191.58 27.59 191.58C22.35 191.58 18.86 194.47 16.38 199.22ZM0.219961 215.66C0.219961 208.44 2.27996 200.46 5.71996 194.62C10.27 186.91 17.48 182.31 28.14 182.31C40.24 182.31 48.43 188.23 48.43 202.74C48.43 209.75 46.51 217.86 42.99 223.85C38.32 231.89 30.82 236.09 20.36 236.09C8.38996 236.09 0.209961 230.11 0.209961 215.66" fill="white"/>
<path d="M69.4402 208.37H74.1902C77.4902 208.37 80.3002 207.82 82.5102 206.17C84.8502 204.38 85.9502 201.49 85.9502 198.6C85.9502 196.6 85.4002 195.16 84.5702 194.2C83.4002 192.83 81.2602 191.87 77.4202 191.87H72.2602L69.4402 208.37ZM64.7702 235.06H52.9302L62.0102 183.34H78.5202C85.4702 183.34 90.4202 184.98 93.3702 187.53C95.7102 189.59 97.6402 192.89 97.6402 198.19C97.6402 203.77 95.5102 208.44 92.4102 211.47C88.2902 215.53 81.9002 217.18 73.9102 217.18H67.8702L64.7702 235.06Z" fill="white"/>
<path d="M114.18 226.52H137.56L136.18 235.06H100.82L109.91 183.34H144.84L142.44 191.86H120.16L118.03 204.38H135.77L134.19 213.25H116.44L114.18 226.52Z" fill="white"/>
<path d="M154.98 183.34H163.51L182.21 217.17L188.19 183.34H198.59L189.44 235.06H180.15L161.93 202.87L156.28 235.06H145.9L154.98 183.34Z" fill="white"/>
<path d="M261.41 183.34L259.01 191.86H237.54L235.41 204.38H252.34L250.75 213.25H233.83L230.05 235.06H218.23L227.31 183.34H261.41Z" fill="white"/>
<path d="M301.74 183.34H312.34L306.21 218C305.05 224.6 302.51 228.67 299.27 231.34C295.07 234.84 289.85 236.09 283.94 236.09C278.03 236.09 273 234.71 269.42 231.69C265.7 228.52 264.34 224.46 264.34 219.03C264.34 216.62 264.61 214.14 265.22 210.71L270.1 183.34H281.66L276.3 213.74C275.82 216.63 275.75 218.07 275.75 218.9C275.75 220.68 276.1 222.74 277.33 224.33C278.77 226.18 281.19 227.08 284.42 227.08C288.54 227.08 291.08 225.64 292.59 223.92C294.25 222.06 295.35 219.38 296.24 214.5L301.74 183.34Z" fill="white"/>
<path d="M318.56 191.86L320.07 183.34H364.5L362.02 191.86H346.41L338.84 235.06H327.01L334.57 191.86H318.56Z" fill="white"/>
<path d="M403.1 183.34H413.69L407.57 218C406.4 224.6 403.86 228.67 400.62 231.34C396.42 234.84 391.2 236.09 385.29 236.09C379.38 236.09 374.35 234.71 370.77 231.69C367.05 228.52 365.68 224.46 365.68 219.03C365.68 216.62 365.95 214.14 366.57 210.71L371.46 183.34H383.01L377.64 213.74C377.16 216.63 377.09 218.07 377.09 218.9C377.09 220.68 377.43 222.74 378.67 224.33C380.11 226.18 382.52 227.08 385.75 227.08C389.87 227.08 392.42 225.64 393.93 223.92C395.59 222.06 396.69 219.38 397.58 214.5L403.08 183.34H403.1Z" fill="white"/>
<path d="M433.19 207.75H437.72C441.71 207.75 444.67 207.14 446.87 205.07C448.73 203.28 449.69 200.74 449.69 198.19C449.69 196.19 449.06 194.62 448.18 193.72C447.14 192.69 445.29 191.87 441.86 191.87H435.93L433.19 207.76V207.75ZM458.56 207.68C456.84 210.09 453.53 212.7 449.28 214.35L457.33 235.05H444.67L438.62 216.27H431.67L428.43 235.05H416.61L425.7 183.33H443.31C449.77 183.33 454.18 184.71 457 187.11C459.87 189.59 461.39 193.51 461.39 197.98C461.39 201.77 460.29 205.27 458.57 207.68" fill="white"/>
<path d="M480.26 226.52H503.65L502.27 235.06H466.91L476 183.34H510.93L508.53 191.86H486.25L484.12 204.38H501.85L500.28 213.25H482.53L480.26 226.52Z" fill="white"/>
<path d="M22.31 142.02H33.54L30.99 123.98H30.85L22.31 142.02ZM34.91 150.56H18.11L11.84 163.57H0L26.44 111.79H39.46L49.1 163.57H36.98L34.91 150.56Z" fill="white"/>
<path d="M65.61 111.8H74.15L92.88 145.68L98.87 111.8H109.27L100.11 163.58H90.82L72.57 131.35L66.92 163.58H56.52L65.61 111.8Z" fill="white"/>
<path d="M125.72 154.97H129.64C136.05 154.97 140.31 153.38 143.62 148.57C146.38 144.64 148.37 138.65 148.37 132.25C148.37 128.25 147.61 125.5 145.89 123.51C144.1 121.44 141.21 120.41 136.53 120.41H131.71L125.72 154.98V154.97ZM136.81 111.8C144.52 111.8 151.76 113.11 156.09 117.65C159.47 121.23 160.64 126.12 160.64 132.04C160.64 141.2 157.82 150.02 152.1 155.87C146.39 161.65 138.88 163.58 128.41 163.58H112.36L121.45 111.8H136.81Z" fill="white"/>
<path d="M181.62 142.02H192.85L190.3 123.98H190.16L181.62 142.02ZM194.22 150.56H177.42L171.15 163.57H159.31L185.75 111.79H198.76L208.4 163.57H196.28L194.22 150.56Z" fill="white"/>
<path d="M215.83 163.58L224.92 111.8H236.7L229.05 155.04H252.05L250.61 163.58H215.83Z" fill="white"/>
<path d="M299.7 111.8H310.3L304.17 146.5C303 153.11 300.45 157.18 297.22 159.86C293.02 163.38 287.79 164.62 281.87 164.62C275.95 164.62 270.92 163.24 267.34 160.21C263.62 157.04 262.24 152.98 262.24 147.54C262.24 145.13 262.52 142.65 263.13 139.21L268.02 111.8H279.59L274.22 142.23C273.74 145.13 273.67 146.57 273.67 147.4C273.67 149.19 274.01 151.26 275.26 152.84C276.7 154.7 279.12 155.6 282.35 155.6C286.48 155.6 289.03 154.15 290.55 152.43C292.2 150.58 293.31 147.89 294.2 143L299.71 111.81L299.7 111.8Z" fill="white"/>
<path d="M354.29 121.71C351.12 120.82 347.47 119.92 343.62 119.92C339.08 119.92 334.67 121.16 331.29 126.46C328.47 130.86 326.68 137.48 326.68 143.47C326.68 146.57 327.16 149.8 328.88 152.01C330.88 154.63 334.04 155.45 338.52 155.45C341.69 155.45 345.75 155.04 348.92 154.42L348.65 163.03C345.34 163.99 340.32 164.61 335.98 164.61C321.86 164.61 314.43 158.14 314.43 144.09C314.43 135.41 317.25 124.94 323.52 118.26C328.82 112.61 335.57 110.76 342.67 110.76C348.18 110.76 352.86 111.86 357.27 113.31L354.31 121.71H354.29Z" fill="white"/>
<path d="M370.19 101.74L387.4 91.1401L391.88 99.3401L373.43 107.26L370.19 101.75V101.74ZM368.26 111.8H380.11L371.02 163.58H359.24L368.26 111.8Z" fill="white"/>
<path d="M401.79 142.02H413.02L410.47 123.98H410.33L401.79 142.02ZM414.39 150.56H397.59L391.32 163.57H379.48L405.92 111.79H418.93L428.57 163.57H416.45L414.38 150.56H414.39Z" fill="white"/>
<path d="M16.7 34.3102H0V10.1802H16.36V12.2102H2.34V20.7902H13.56V22.8202H2.34V32.2802H16.7V34.3102Z" fill="white"/>
<path d="M21.2201 10.1802V32.2802H35.0901V34.3102H18.8101V10.1802H21.2201Z" fill="white"/>
<path d="M44.8499 22.8502C49.4099 22.8502 51.7099 20.9402 51.7099 17.5302C51.7099 14.1202 49.4099 12.2002 44.8499 12.2002H38.9899V22.8502H44.8499ZM38.9899 34.3002H36.6099V10.1802H44.8399C50.7399 10.1802 54.0699 12.9802 54.0699 17.5302C54.0699 22.0802 50.7399 24.8802 44.8399 24.8802H38.9799V34.3002H38.9899Z" fill="white"/>
<path d="M57.9101 24.4999H67.6401L62.7801 12.7799H62.6301L57.9201 24.4999H57.9101ZM64.1201 10.1699L74.3101 34.2999H71.7401L68.4801 26.5199H57.0701L53.9701 34.2999H51.6001L61.5201 10.1699H64.1201Z" fill="white"/>
<path d="M79.7899 34.3102V12.2102H70.8599V10.1802H91.2399V12.2102H82.1999V34.3102H79.7899Z" fill="white"/>
<path d="M94.9901 10.1802H92.5801V34.3102H94.9901V10.1802Z" fill="white"/>
<path d="M108.74 11.75C103.07 11.75 99.4299 15.85 99.4299 22.24C99.4299 28.63 103.07 32.73 108.74 32.73C114.41 32.73 118.05 28.63 118.05 22.24C118.05 15.85 114.41 11.75 108.74 11.75ZM108.74 34.77C101.69 34.77 96.8999 29.68 96.8999 22.24C96.8999 14.8 101.69 9.71997 108.74 9.71997C115.79 9.71997 120.58 14.81 120.58 22.24C120.58 29.67 115.79 34.77 108.74 34.77Z" fill="white"/>
<path d="M172.48 10.29L168.66 24.1L167.69 32.01H167.43L166.46 24.1L162.33 10.29H155.03L163.73 34.3H170.99L179.78 10.29H172.48Z" fill="white"/>
<path d="M204.33 26.21V10.29H197.47V25.99L197.51 27.75C195.84 29.03 194.21 30.12 192.23 30.12C189.68 30.12 188.89 28.45 188.89 24.89V10.29H181.99V25.55C181.99 32.59 185.11 35.05 189.07 35.05C193.95 35.05 195.67 31.31 197.42 28.15H197.51C197.6 30.08 197.69 32.46 198.21 34.31H204.76C204.32 31.67 204.32 28.86 204.32 26.22" fill="white"/>
<path d="M219.64 14.5098C224.61 14.5098 225.27 18.3798 225.27 20.4498H213.31C213.71 17.4998 215.24 14.5098 219.64 14.5098ZM213.22 21.6698L217.35 23.6998H231.55V20.4498C231.55 13.8098 226.84 9.58984 219.81 9.58984C211.85 9.58984 207.01 14.6498 207.01 22.2998C207.01 30.3498 211.67 35.1798 219.37 35.1398C225.35 35.0998 228.6 33.1198 230.98 29.9998L225.7 27.5398C224.29 29.2998 222.62 30.0898 219.63 30.1298C215.72 30.1698 213.21 27.1798 213.21 22.0398V21.6898L213.22 21.6698Z" fill="white"/>
<path d="M234.57 0V31.66L240.02 34.3H241.43V0H234.57Z" fill="white"/>
<path d="M254.43 30.56C251.97 30.56 251 28.84 251 27.17C251 25.15 252.67 23.61 255.7 23.48C256.45 23.44 259.31 23.13 260.98 22.78L260.94 27.97C259.53 29.16 257.03 30.57 254.43 30.57M267.31 26.48L267.35 18.52C267.39 13.07 263.57 9.55005 255.74 9.55005C250.38 9.55005 246.11 11.84 244.18 14.74L249.5 17.2C251.13 15.31 252.89 14.52 255.88 14.52C260.01 14.52 260.98 17.42 260.98 19.01V19.63C260.45 19.98 259.79 20.2 259.09 20.33C256.14 20.81 253.2 20.68 250.3 21.38C247.48 22.04 243.7 23.93 243.7 28.46C243.7 31.67 245.86 35.14 251.66 35.14C255.35 35.14 258.87 32.98 260.98 30.35C261.02 31.67 261.16 33.0801 261.46 34.3101H268.36C267.66 32.9001 267.3 28.94 267.3 26.48" fill="white"/>
<path d="M138.67 9.91L141.48 12.79C141.66 12.98 141.91 13.08 142.17 13.08L146.19 13.03C146.73 13.03 147.16 13.46 147.15 13.99L147.1 18.01C147.1 18.27 147.2 18.52 147.39 18.7L150.27 21.51C150.65 21.88 150.65 22.5 150.27 22.87L147.39 25.68C147.2 25.86 147.1 26.11 147.1 26.37L147.15 30.39C147.15 30.92 146.72 31.36 146.19 31.35L142.17 31.3C141.91 31.3 141.66 31.4 141.48 31.59L138.67 34.47C138.3 34.85 137.68 34.85 137.31 34.47L134.5 31.59C134.32 31.4 134.07 31.3 133.81 31.3L129.79 31.35C129.25 31.35 128.82 30.92 128.83 30.39L128.88 26.37C128.88 26.11 128.78 25.86 128.59 25.68L125.71 22.87C125.33 22.5 125.33 21.88 125.71 21.51L128.59 18.7C128.78 18.52 128.88 18.27 128.88 18.01L128.83 13.99C128.83 13.46 129.26 13.02 129.79 13.03L133.81 13.08C134.07 13.08 134.32 12.98 134.5 12.79L137.31 9.91C137.68 9.53 138.3 9.53 138.67 9.91Z" fill="white"/>
<path d="M562.39 302.63C562.39 311.17 562.39 319.71 562.39 328.25C562.39 328.56 562.39 328.86 562.39 329.15C561.72 329.28 547.55 329.33 545.93 329.22C545.91 329.2 545.89 329.18 545.88 329.16C545.87 329.14 545.85 329.12 545.85 329.1C545.85 327.6 545.85 326.11 545.85 324.61C546.08 324.43 546.35 324.52 546.59 324.52C549.9 324.52 553.2 324.52 556.51 324.52C556.79 324.52 557.06 324.5 557.38 324.49C557.4 324.28 557.43 324.13 557.43 323.98C557.43 322.33 557.43 320.68 557.43 319.03C557.43 318.95 557.43 318.87 557.43 318.8C557.4 318.39 557.32 318.3 556.93 318.27C556.75 318.26 556.57 318.27 556.39 318.27C553.52 318.27 550.65 318.27 547.79 318.27C547.53 318.27 547.28 318.27 546.94 318.27C546.94 317.52 546.93 316.81 546.92 316.1C546.92 315.38 546.92 314.66 546.92 313.94C547.19 313.74 547.49 313.83 547.76 313.83C550.68 313.83 553.6 313.83 556.52 313.83C557.44 313.83 557.44 313.83 557.44 312.94C557.44 311.37 557.44 309.79 557.44 308.22C557.44 307.48 557.4 307.44 556.64 307.44C553.36 307.44 550.08 307.44 546.8 307.44C546.52 307.44 546.23 307.44 545.88 307.44C545.78 305.83 545.89 304.24 545.82 302.65H562.41L562.39 302.63Z" fill="white"/>
<path d="M592.17 363.48C591.94 363.48 591.7 363.48 591.48 363.51C591.15 363.55 591.12 363.3 591.01 363.07C590.42 363.59 589.75 363.76 589 363.53C588.12 363.26 587.75 362.33 588.26 361.56C588.4 361.34 588.66 361.12 588.9 361.05C589.41 360.9 589.95 360.83 590.48 360.74C590.65 360.71 590.83 360.71 590.99 360.69C591.08 360.01 590.97 359.75 590.56 359.58C590.02 359.36 589.66 359.52 589.16 360.2H588.3C588.27 359.59 588.6 359.25 589.04 359.01C589.76 358.61 590.53 358.63 591.29 358.91C591.75 359.08 591.94 359.53 592.17 359.92V363.48ZM590.99 361.41C590.47 361.28 590.02 361.41 589.59 361.53C589.23 361.64 589.04 362.01 589.11 362.31C589.19 362.66 589.42 362.84 589.84 362.86C590.74 362.9 591.18 362.37 591 361.4L590.99 361.41Z" fill="white"/>
<path d="M475.45 332.81C478.04 326.44 480.64 320.06 483.23 313.68H490.17V340.2H485.21C485.19 339.33 485.21 338.46 485.2 337.6C485.2 336.72 485.2 335.85 485.2 334.97V321.75L485.04 321.72C484.56 322.52 484.32 323.43 483.94 324.27C483.54 325.13 483.2 326.02 482.84 326.9C482.48 327.78 482.12 328.66 481.76 329.55C481.39 330.45 481.02 331.36 480.65 332.26C480.29 333.14 479.91 334.02 479.55 334.9C479.19 335.78 478.84 336.66 478.48 337.55C478.12 338.43 477.75 339.3 477.38 340.2H473.14C471.88 337.16 470.61 334.09 469.33 331.04C468.05 327.99 466.84 324.91 465.53 321.92C465.42 321.92 465.39 321.9 465.37 321.92C465.35 321.93 465.33 321.96 465.33 321.98C465.33 328.04 465.33 334.1 465.33 340.24C464.49 340.24 463.72 340.24 462.96 340.25C462.19 340.25 461.41 340.25 460.68 340.25C460.62 340.2 460.6 340.18 460.58 340.16C460.56 340.14 460.55 340.12 460.55 340.1C460.55 331.33 460.55 322.55 460.55 313.78C461.15 313.63 464.75 313.59 467.23 313.7C469.89 320.08 472.56 326.48 475.22 332.87C475.3 332.86 475.38 332.84 475.45 332.83V332.81Z" fill="white"/>
<path d="M496.52 340.23V313.7C496.73 313.68 496.93 313.65 497.13 313.65C500.26 313.65 503.38 313.6 506.51 313.67C509.23 313.73 511.79 314.43 514.05 316.03C516 317.41 517.4 319.2 518.2 321.46C518.59 322.58 518.85 323.72 519 324.9C519.13 325.96 519.16 327.01 519.09 328.06C518.92 330.55 518.35 332.93 516.87 335.02C515.46 337.02 513.59 338.42 511.32 339.3C509.68 339.94 507.96 340.23 506.19 340.23C503.17 340.23 500.15 340.23 497.12 340.23C496.94 340.23 496.77 340.23 496.52 340.23ZM501.45 318.43C501.45 318.79 501.45 319.07 501.45 319.35C501.45 324.41 501.45 329.46 501.45 334.52C501.45 334.67 501.45 334.83 501.45 334.98C501.47 335.52 501.54 335.6 502.09 335.6C503.2 335.6 504.31 335.64 505.42 335.6C506.26 335.56 507.13 335.51 507.94 335.31C510.89 334.58 512.81 332.75 513.57 329.78C514.02 328.03 513.98 326.26 513.67 324.5C513.49 323.45 513.07 322.47 512.45 321.6C510.94 319.48 508.85 318.42 506.26 318.38C504.87 318.36 503.47 318.38 502.07 318.38C501.89 318.38 501.72 318.41 501.44 318.44L501.45 318.43Z" fill="white"/>
<path d="M591.84 321.77C590.3 322.37 588.7 322.74 587.17 323.31C586.93 322.76 586.72 322.21 586.45 321.69C585.88 320.56 585.02 319.67 583.96 318.99C583.15 318.48 582.24 318.18 581.28 318.08C580.69 318.02 580.1 317.93 579.51 317.95C577.42 318 575.6 318.74 574.05 320.16C572.58 321.51 571.79 323.18 571.5 325.13C571.27 326.68 571.28 328.21 571.69 329.72C572.3 331.98 573.6 333.73 575.7 334.87C576.95 335.55 578.3 335.91 579.69 335.91C582.89 335.91 585.36 334.59 586.82 331.65C587 331.28 587.17 330.91 587.37 330.47C588.89 330.92 590.41 331.38 591.98 331.85C591.96 332.02 591.97 332.2 591.91 332.36C590.37 336.7 587.4 339.47 582.88 340.51C581.91 340.73 580.89 340.82 579.89 340.83C577.68 340.83 575.52 340.47 573.53 339.46C570.1 337.72 567.75 335.03 566.68 331.3C566.45 330.49 566.36 329.64 566.27 328.8C566.18 328.04 566.1 327.26 566.14 326.49C566.25 324.4 566.54 322.34 567.53 320.46C568.75 318.15 570.47 316.32 572.72 314.98C574.22 314.08 575.84 313.51 577.56 313.26C578.52 313.12 579.5 313.13 580.48 313.16C581.64 313.21 582.78 313.35 583.9 313.66C585.62 314.14 587.13 314.99 588.43 316.21C589.99 317.67 591.1 319.4 591.75 321.43C591.78 321.53 591.79 321.63 591.82 321.79L591.84 321.77Z" fill="white"/>
<path d="M523.85 340.16V313.69H540.28C540.4 314.28 540.43 317.31 540.32 318.39C539.38 318.39 538.44 318.39 537.49 318.39C536.53 318.39 535.58 318.39 534.62 318.39H529C528.85 319.04 528.83 323.74 528.96 324.59C529.79 324.7 530.63 324.63 531.48 324.64C532.36 324.65 533.24 324.64 534.12 324.64H539.26V329.04C538.4 329.15 537.55 329.08 536.71 329.09C535.83 329.1 534.95 329.09 534.07 329.09H528.9C528.84 331.23 528.88 333.28 528.87 335.3C529.15 335.56 529.45 335.47 529.72 335.47C532.98 335.47 536.23 335.47 539.49 335.47C539.75 335.47 540 335.47 540.25 335.47C540.4 336.06 540.45 338.54 540.34 340.11C539.8 340.24 524.85 340.28 523.85 340.14V340.16Z" fill="white"/>
<path d="M449.1 313.68H454.16V340.12C453.55 340.26 449.96 340.28 449.1 340.15V313.67V313.68Z" fill="white"/>
<path d="M513.59 358.85C513.67 359.04 513.73 359.17 513.79 359.31C514.93 358.47 515.74 358.53 516.47 359.41C516.88 359.2 517.27 358.93 517.69 358.8C518.65 358.51 519.43 359.04 519.6 360.04C519.79 361.16 519.66 362.29 519.69 363.47H518.69C518.67 363.29 518.64 363.09 518.64 362.89C518.64 362.27 518.64 361.65 518.64 361.04C518.64 360.89 518.64 360.73 518.64 360.58C518.59 360.03 518.33 359.69 517.9 359.63C517.4 359.55 516.93 359.82 516.75 360.33C516.68 360.54 516.65 360.78 516.65 361.01C516.64 361.65 516.65 362.3 516.65 362.94C516.65 363.11 516.63 363.29 516.61 363.49H515.6C515.6 362.87 515.6 362.28 515.6 361.69C515.6 361.3 515.61 360.92 515.6 360.53C515.57 359.93 515.35 359.68 514.86 359.62C514.38 359.56 513.91 359.84 513.76 360.29C513.7 360.48 513.69 360.69 513.69 360.9C513.69 361.57 513.69 362.24 513.69 362.91C513.69 363.09 513.69 363.26 513.69 363.48H512.73C512.6 362.94 512.56 360.24 512.67 358.93C512.95 358.8 513.25 358.87 513.59 358.87V358.85Z" fill="white"/>
<path d="M483.32 363.48H482.43C482.4 363.31 482.36 363.14 482.36 362.97C482.36 362.33 482.36 361.68 482.36 361.04C482.36 360.84 482.36 360.63 482.31 360.43C482.19 359.82 481.91 359.58 481.38 359.61C480.85 359.64 480.45 359.98 480.38 360.51C480.35 360.76 480.36 361.02 480.36 361.28C480.36 362 480.36 362.71 480.36 363.47H479.34C479.32 363.27 479.3 363.08 479.29 362.88C479.29 362.08 479.3 361.28 479.28 360.48C479.26 359.92 478.99 359.64 478.5 359.61C477.98 359.58 477.5 359.91 477.41 360.4C477.37 360.63 477.38 360.86 477.38 361.09C477.38 361.86 477.38 362.63 477.38 363.46H476.44C476.3 362.95 476.26 360.56 476.37 358.92C476.5 358.9 476.65 358.86 476.79 358.85C476.94 358.84 477.1 358.85 477.27 358.85C477.34 359 477.4 359.14 477.44 359.22C477.92 359.06 478.38 358.82 478.86 358.75C479.41 358.67 479.85 358.97 480.16 359.5C480.3 359.39 480.4 359.29 480.53 359.22C480.8 359.07 481.06 358.9 481.35 358.81C482.38 358.51 483.26 359.1 483.3 360.17C483.35 361.25 483.31 362.33 483.31 363.49L483.32 363.48Z" fill="white"/>
<path d="M561.09 359.12H559.98C559.94 359.03 559.87 358.92 559.83 358.81C559.41 357.68 557.82 357.69 557.22 358.31C557.2 358.33 557.18 358.35 557.16 358.36C556.22 359.12 556.28 361.37 557.03 362.14C557.91 363.03 559.39 362.84 559.95 361.72C560.01 361.61 560.06 361.49 560.12 361.36H561.09C561.09 361.54 561.13 361.71 561.09 361.87C560.75 362.92 559.97 363.45 558.93 363.6C558.31 363.69 557.69 363.65 557.1 363.43C556.3 363.14 555.75 362.57 555.47 361.78C555.17 360.91 555.15 360 555.43 359.12C556.07 357.04 558.35 356.53 559.97 357.36C560.65 357.71 561.03 358.31 561.11 359.13L561.09 359.12Z" fill="white"/>
<path d="M583.72 362.91C583.67 363.11 583.64 363.27 583.59 363.47H582.64V356.71H583.56C583.74 357.12 583.62 357.59 583.64 358.04C583.66 358.47 583.64 358.91 583.64 359.44C583.8 359.34 583.9 359.3 583.98 359.23C585.18 358.17 586.91 358.93 587.23 360.27C587.4 360.99 587.41 361.7 587.12 362.39C586.59 363.67 585.05 364.03 583.98 363.14C583.9 363.08 583.82 363.01 583.71 362.92L583.72 362.91ZM586.32 361.12C586.25 360.85 586.19 360.52 586.07 360.22C585.88 359.78 585.51 359.58 585.03 359.57C584.53 359.56 584.12 359.71 583.88 360.18C583.59 360.73 583.56 361.3 583.76 361.89C583.97 362.51 584.38 362.81 585.02 362.79C585.64 362.77 585.99 362.5 586.18 361.87C586.24 361.65 586.27 361.42 586.33 361.13L586.32 361.12Z" fill="white"/>
<path d="M574.65 359.4V356.7C574.85 356.68 575 356.65 575.14 356.65C575.29 356.65 575.45 356.66 575.6 356.67C575.74 357.25 575.75 362.71 575.62 363.47H574.75C574.7 363.3 574.64 363.11 574.58 362.9C574.39 363.05 574.21 363.2 574.02 363.32C572.95 363.98 571.59 363.5 571.17 362.31C570.93 361.61 570.91 360.89 571.13 360.19C571.58 358.73 573.21 358.27 574.4 359.27C574.45 359.31 574.52 359.33 574.65 359.4ZM574.69 361.18C574.65 360.91 574.65 360.68 574.59 360.46C574.41 359.84 573.99 359.55 573.32 359.57C572.69 359.59 572.32 359.88 572.15 360.49C572.03 360.94 571.98 361.39 572.15 361.86C572.35 362.44 572.77 362.79 573.34 362.79C573.92 362.79 574.39 362.47 574.57 361.91C574.65 361.67 574.66 361.41 574.7 361.19L574.69 361.18Z" fill="white"/>
<path d="M521.12 358.86C521.4 358.86 521.68 358.86 521.98 358.86C522.03 359.04 522.07 359.21 522.12 359.4C522.2 359.35 522.28 359.33 522.33 359.28C523.41 358.13 525.47 358.82 525.68 360.58C525.74 361.11 525.72 361.62 525.6 362.11C525.26 363.52 523.66 364.08 522.47 363.23C522.37 363.16 522.27 363.09 522.07 362.96V365.14H521.1C520.94 364.44 520.96 359.41 521.12 358.87V358.86ZM522.03 361.16C522.04 361.34 522.04 361.49 522.06 361.64C522.14 362.33 522.68 362.79 523.38 362.78C524.06 362.78 524.51 362.35 524.58 361.62C524.61 361.31 524.61 361 524.58 360.7C524.51 360 524.04 359.57 523.36 359.56C522.68 359.56 522.19 359.96 522.07 360.63C522.04 360.81 522.04 360.99 522.03 361.15V361.16Z" fill="white"/>
<path d="M508.62 359.79H510.83V360.66H508.62V362.56H511.51C511.53 362.88 511.55 363.13 511.56 363.36C511.01 363.52 508.38 363.56 507.43 363.42V357.12C508.07 357.06 508.71 357.1 509.34 357.09C509.98 357.09 510.63 357.09 511.26 357.09C511.41 357.5 511.41 357.5 511.32 357.99H508.62V359.78V359.79Z" fill="white"/>
<path d="M546.55 363.48H545.71C545.66 363.3 545.62 363.11 545.56 362.89C545.43 362.99 545.32 363.07 545.23 363.15C544.34 364.01 542.42 363.77 542.01 362.05C541.86 361.42 541.88 360.78 542.08 360.15C542.57 358.66 544.46 358.28 545.33 359.24C545.38 359.3 545.45 359.33 545.6 359.44C545.63 358.94 545.61 358.49 545.62 358.05C545.62 357.62 545.62 357.18 545.62 356.7H546.49C546.63 357.26 546.67 362.22 546.54 363.48H546.55ZM545.69 361.15C545.62 360.84 545.58 360.56 545.48 360.29C545.29 359.78 544.92 359.57 544.33 359.56C543.79 359.56 543.37 359.77 543.16 360.28C542.96 360.8 542.93 361.33 543.1 361.87C543.29 362.44 543.6 362.71 544.14 362.74C544.79 362.78 545.22 362.56 545.45 362.01C545.57 361.73 545.6 361.42 545.67 361.14L545.69 361.15Z" fill="white"/>
<path d="M453.35 362.58V363.39C452.8 363.54 450.42 363.58 449.2 363.45C449.2 361.36 449.2 359.27 449.2 357.14H453.17V358.03H450.35V359.76H452.5C452.67 360.08 452.63 360.34 452.57 360.67H450.46C450.2 361.31 450.33 361.91 450.35 362.58H453.35Z" fill="white"/>
<path d="M552.3 361.33C551.63 361.33 551.05 361.33 550.46 361.36C549.91 361.39 549.34 361.23 548.81 361.48C548.91 362.32 549.17 362.67 549.77 362.83C550.38 362.99 550.79 362.81 551.28 362.15H552.14C552.16 362.6 551.94 362.9 551.64 363.15C550.64 363.99 548.79 363.72 548.07 362.63C547.49 361.75 547.54 360.41 548.2 359.59C548.81 358.81 549.87 358.53 550.85 358.86C551.45 359.07 551.88 359.46 552.07 360.06C552.19 360.44 552.22 360.85 552.31 361.34L552.3 361.33ZM548.87 360.6C549.67 360.75 550.66 360.73 551.18 360.57C551.01 359.79 550.66 359.46 550.04 359.46C549.42 359.46 549.02 359.84 548.87 360.6Z" fill="white"/>
<path d="M494.46 363.62C493.23 363.64 492.01 362.77 492.05 361.18C492.09 359.69 492.99 358.74 494.46 358.73C495.88 358.72 496.93 359.66 496.91 361.22C496.89 362.94 495.58 363.67 494.46 363.63V363.62ZM494.5 359.49C493.78 359.57 493.28 359.99 493.21 360.66C493.17 361.01 493.17 361.38 493.21 361.73C493.28 362.25 493.6 362.59 494.12 362.76C494.63 362.93 495.05 362.76 495.39 362.43C495.99 361.82 496.04 360.46 495.3 359.86C495.08 359.68 494.77 359.61 494.49 359.49H494.5Z" fill="white"/>
<path d="M533.51 361.31C532.33 361.42 531.2 361.28 530.1 361.39C530.02 362.14 530.25 362.53 530.86 362.76C531.53 363.01 532 362.84 532.52 362.14H533.39C533.35 362.78 533 363.14 532.5 363.38C531.43 363.89 530.03 363.59 529.4 362.75C528.7 361.81 528.74 360.34 529.55 359.46C530.22 358.72 531.08 358.56 532.03 358.84C532.9 359.1 533.33 359.71 533.43 360.59C533.45 360.79 533.48 361 533.52 361.31H533.51ZM532.43 360.66C532.22 359.76 531.86 359.42 531.23 359.46C530.61 359.49 530.19 359.92 530.09 360.66H532.43Z" fill="white"/>
<path d="M576.78 361.16C576.67 359.85 577.64 358.72 579.15 358.71C580.57 358.71 581.58 359.72 581.58 361.13C581.58 362.6 580.59 363.59 579.13 363.61C578.05 363.62 576.66 362.84 576.78 361.15V361.16ZM577.84 361.12C577.84 361.29 577.85 361.45 577.87 361.6C577.94 362.27 578.41 362.76 579.05 362.83C579.64 362.89 580.21 362.45 580.41 361.82C580.55 361.38 580.51 360.96 580.41 360.54C580.23 359.86 579.84 359.56 579.13 359.57C578.48 359.58 578.02 359.97 577.9 360.61C577.87 360.79 577.87 360.97 577.86 361.13L577.84 361.12Z" fill="white"/>
<path d="M475.25 361.16C475.25 362.65 474.33 363.58 472.89 363.63C471.5 363.67 470.41 362.59 470.43 361.16C470.45 359.77 471.48 358.71 472.86 358.72C474.27 358.72 475.33 359.75 475.26 361.16H475.25ZM474.22 361.14C474.22 361.14 474.19 361.14 474.18 361.14C474.18 361.06 474.18 360.99 474.18 360.91C474.13 360.11 473.68 359.61 472.97 359.58C472.17 359.54 471.65 359.94 471.55 360.77C471.51 361.14 471.55 361.54 471.64 361.9C471.79 362.48 472.27 362.82 472.82 362.84C473.36 362.86 473.86 362.52 474.06 361.97C474.15 361.71 474.17 361.42 474.21 361.15L474.22 361.14Z" fill="white"/>
<path d="M461.74 363.62C460.55 363.65 459.31 362.83 459.31 361.19C459.31 359.68 460.34 358.7 461.79 358.73C463.29 358.76 464.17 359.72 464.17 361.2C464.17 363 462.81 363.65 461.74 363.62ZM461.76 359.57C461.16 359.57 460.68 359.88 460.52 360.42C460.39 360.89 460.35 361.38 460.5 361.86C460.67 362.44 461.17 362.83 461.74 362.84C462.26 362.84 462.77 362.46 462.98 361.95C463.19 361.42 463.13 360.89 462.96 360.37C462.79 359.87 462.32 359.58 461.76 359.58V359.57Z" fill="white"/>
<path d="M539 361.2C539.09 362.7 537.88 363.65 536.6 363.62C535.17 363.59 534.19 362.62 534.19 361.18C534.19 359.76 535.2 358.72 536.59 358.71C537.86 358.7 539.11 359.58 539 361.2ZM537.94 361.09C537.94 360.99 537.94 360.76 537.88 360.53C537.76 359.99 537.32 359.62 536.81 359.57C536.12 359.5 535.69 359.73 535.43 360.31C535.17 360.91 535.2 361.52 535.45 362.1C535.69 362.65 536.34 362.91 536.94 362.75C537.62 362.56 537.93 362.09 537.94 361.09Z" fill="white"/>
<path d="M561.91 361.18C561.84 359.7 562.93 358.73 564.3 358.72C565.72 358.72 566.72 359.74 566.71 361.17C566.71 362.63 565.74 363.59 564.29 363.62C563.02 363.65 561.8 362.69 561.9 361.17L561.91 361.18ZM562.95 361.15C563 361.4 563.01 361.72 563.11 362C563.31 362.54 563.84 362.89 564.37 362.83C564.91 362.77 565.34 362.51 565.52 361.95C565.7 361.39 565.71 360.84 565.47 360.3C565.23 359.76 564.81 359.55 564.23 359.58C563.66 359.6 563.25 359.88 563.07 360.42C563 360.64 562.99 360.87 562.94 361.15H562.95Z" fill="white"/>
<path d="M491.02 348.65C490.25 350.48 489.47 352.32 488.64 354.3C487.8 352.31 487.03 350.48 486.25 348.64C486.2 348.64 486.15 348.66 486.1 348.67V354.13C485.93 354.13 485.84 354.15 485.7 354.15V347.76C485.88 347.74 486.07 347.71 486.33 347.68C487.08 349.49 487.83 351.29 488.62 353.22C489.15 352.24 489.46 351.33 489.84 350.45C490.22 349.55 490.6 348.65 490.98 347.73H491.57C491.61 347.81 491.65 347.86 491.65 347.9C491.65 349.83 491.65 351.77 491.66 353.7C491.66 353.92 491.71 354.21 491.28 354.12C491.14 353.53 491.23 352.92 491.22 352.31C491.2 351.69 491.22 351.07 491.22 350.45C491.21 349.84 491.28 349.23 491.04 348.63L491.02 348.65Z" fill="white"/>
<path d="M469.37 363.47H468.41C468.41 362.98 468.41 362.52 468.41 362.07C468.41 361.58 468.43 361.09 468.41 360.6C468.38 360 468.1 359.68 467.62 359.61C467.03 359.53 466.51 359.83 466.34 360.37C466.28 360.56 466.27 360.78 466.27 360.98C466.27 361.62 466.27 362.27 466.27 362.91C466.27 363.08 466.25 363.26 466.24 363.47H465.25V358.88H466.19C466.23 359.04 466.28 359.21 466.33 359.41C466.51 359.26 466.66 359.12 466.83 359.01C467.31 358.7 467.83 358.62 468.38 358.8C469 359 469.35 359.42 469.37 360.12C469.4 361.2 469.37 362.29 469.37 363.46V363.47Z" fill="white"/>
<path d="M503.22 358.86H504.23C503.41 360.99 502.51 363.02 501.71 365.12H500.67C500.87 364.62 501.03 364.16 501.25 363.73C501.49 363.25 501.43 362.83 501.2 362.35C500.72 361.35 500.29 360.33 499.85 359.32C499.8 359.21 499.77 359.08 499.73 358.94C500.07 358.77 500.4 358.85 500.78 358.86C501.19 359.82 501.6 360.79 502.07 361.9C502.49 360.81 502.85 359.86 503.23 358.87L503.22 358.86Z" fill="white"/>
<path d="M491.33 360.36C491.02 360.56 490.72 360.48 490.39 360.44C490.34 360.35 490.3 360.26 490.26 360.17C490.02 359.69 489.62 359.53 489.1 359.58C488.58 359.63 488.22 359.89 488.05 360.36C487.84 360.93 487.85 361.52 488.09 362.09C488.29 362.57 488.7 362.8 489.19 362.82C489.64 362.84 490.05 362.67 490.29 362.23C490.36 362.1 490.43 361.96 490.5 361.82H491.35C491.29 362.51 491 363 490.42 363.32C489.42 363.89 488.06 363.64 487.32 362.76C487.29 362.72 487.25 362.68 487.22 362.64C486.63 361.82 486.74 360.2 487.43 359.46C488.23 358.61 489.5 358.5 490.49 359.03C491 359.31 491.23 359.78 491.33 360.35V360.36Z" fill="white"/>
<path d="M458.58 360.44H457.68C457.63 360.35 457.57 360.24 457.52 360.14C457.26 359.67 456.85 359.54 456.34 359.59C455.82 359.65 455.48 359.94 455.31 360.41C455.13 360.93 455.15 361.48 455.31 362.01C455.46 362.52 455.87 362.74 456.35 362.82C456.82 362.9 457.21 362.69 457.51 362.33C457.62 362.19 457.68 362.02 457.78 361.83H458.64C458.57 362.47 458.32 362.96 457.8 363.26C456.98 363.74 456.12 363.76 455.28 363.33C454.51 362.93 454.15 362.26 454.13 361.37C454.1 360.37 454.36 359.53 455.29 359.02C456.13 358.57 456.98 358.61 457.81 359.06C458.32 359.34 458.55 359.81 458.59 360.44H458.58Z" fill="white"/>
<path d="M541.21 354.17V347.85C542.09 347.58 543.73 347.68 544.48 348.04C545.16 348.37 545.64 348.91 545.88 349.62C546.12 350.31 546.16 351.03 546.01 351.75C545.75 353.06 544.9 354.01 543.28 354.16C542.62 354.22 541.94 354.17 541.2 354.17H541.21ZM541.67 353.76C542.22 353.76 542.73 353.78 543.24 353.76C544.26 353.7 544.99 353.2 545.37 352.24C545.57 351.73 545.68 351.2 545.61 350.65C545.48 349.53 545.05 348.59 543.87 348.24C543.15 348.03 542.41 348.08 541.66 348.18V353.76H541.67Z" fill="white"/>
<path d="M531.69 350.29V347.31C531.95 347.17 532.1 347.19 532.13 347.44C532.15 347.54 532.13 347.65 532.13 347.75C532.13 349.71 532.13 351.67 532.13 353.62C532.13 353.75 532.16 353.89 532.11 354C532.07 354.09 531.93 354.13 531.77 354.24C531.73 353.89 531.69 353.62 531.65 353.27C531.46 353.44 531.3 353.58 531.15 353.73C530.56 354.31 529.83 354.33 529.13 354.1C528.4 353.87 527.92 353.31 527.83 352.52C527.78 352.09 527.77 351.64 527.83 351.21C528 349.84 529.47 348.99 530.72 349.56C531.06 349.71 531.33 350.01 531.69 350.29ZM531.69 351.83C531.69 351.65 531.71 351.47 531.69 351.29C531.59 350.45 531.02 349.87 530.19 349.75C529.42 349.64 528.66 350.09 528.37 350.88C528.15 351.5 528.15 352.15 528.37 352.77C528.7 353.73 529.73 354.14 530.64 353.72C531.44 353.35 531.72 352.67 531.69 351.83Z" fill="white"/>
<path d="M526.81 356.67H527.7C527.85 357.21 527.88 362.46 527.74 363.46H526.81V356.67Z" fill="white"/>
<path d="M513.75 353.24C513.62 354.16 513.8 354.99 513.61 355.88C513.46 355.78 513.33 355.73 513.29 355.65C513.24 355.54 513.26 355.4 513.26 355.27C513.26 353.52 513.26 351.77 513.26 350.02C513.26 349.89 513.24 349.75 513.29 349.64C513.33 349.56 513.46 349.52 513.62 349.41C513.67 349.74 513.7 349.99 513.75 350.31C513.9 350.19 514.02 350.09 514.14 349.99C514.74 349.44 515.42 349.23 516.2 349.5C517.04 349.79 517.49 350.41 517.58 351.28C517.62 351.66 517.61 352.05 517.58 352.43C517.49 353.24 517.05 353.86 516.29 354.11C515.5 354.37 514.7 354.32 514.09 353.62C514.01 353.53 513.92 353.44 513.75 353.25V353.24ZM517.19 351.86H517.15C517.15 351.7 517.16 351.55 517.15 351.4C517.07 350.49 516.46 349.82 515.61 349.75C514.93 349.7 514.01 350.14 513.82 351.04C513.72 351.51 513.68 352.02 513.76 352.48C513.89 353.3 514.65 353.87 515.46 353.89C516.21 353.9 516.86 353.44 517.08 352.7C517.16 352.43 517.16 352.14 517.19 351.87V351.86Z" fill="white"/>
<path d="M537.55 351.86H533.92C533.76 352.34 533.91 352.73 534.14 353.06C534.32 353.32 534.57 353.59 534.86 353.72C535.66 354.1 536.48 353.88 536.99 353.2C537.12 353.03 537.22 352.85 537.54 353C537.37 353.51 537.05 353.9 536.55 354.06C534.73 354.64 533.44 353.62 533.41 352.08C533.4 351.34 533.45 350.65 534 350.07C534.64 349.4 535.4 349.22 536.25 349.5C537.1 349.78 537.55 350.43 537.59 351.38C537.59 351.5 537.58 351.63 537.57 351.85L537.55 351.86ZM533.91 351.38C534.5 351.58 536.47 351.58 537.07 351.38C537.09 350.44 536.52 349.79 535.64 349.73C534.69 349.67 533.99 350.34 533.91 351.38Z" fill="white"/>
<path d="M522.21 354.15C521.95 354.103 521.783 353.926 521.71 353.62C521.56 353.73 521.43 353.83 521.29 353.92C520.65 354.34 519.96 354.29 519.28 354.08C518.78 353.92 518.58 353.49 518.54 353C518.51 352.5 518.68 352.06 519.16 351.86C519.51 351.71 519.89 351.61 520.26 351.57C520.71 351.51 521.18 351.53 521.62 351.51C521.86 350.68 521.68 350.11 521.15 349.87C520.48 349.58 519.7 349.79 519.31 350.39C519.21 350.55 519.2 350.81 518.86 350.73C518.73 350.4 518.91 350.15 519.12 349.93C519.67 349.35 520.9 349.19 521.56 349.65C521.76 349.79 521.92 350.02 522.03 350.24C522.14 350.47 522.19 350.74 522.19 350.99C522.21 352.02 522.19 353.05 522.19 354.15H522.21ZM521.77 351.84C521.37 351.84 521.07 351.84 520.76 351.84C520.53 351.84 520.29 351.82 520.07 351.87C519.8 351.94 519.52 352.03 519.31 352.2C518.71 352.69 518.87 353.52 519.59 353.8C520.17 354.03 521 353.84 521.44 353.39C521.65 353.18 521.77 352.94 521.76 352.64C521.76 352.41 521.76 352.19 521.76 351.84H521.77Z" fill="white"/>
<path d="M551.18 351.85H547.54C547.54 352.62 547.69 353.25 548.32 353.63C548.94 354 549.61 353.99 550.24 353.65C550.43 353.55 550.56 353.33 550.7 353.14C550.82 352.98 550.94 352.88 551.19 352.99C551.06 353.61 550.64 353.99 550.08 354.11C549.59 354.21 549.05 354.2 548.55 354.13C548.15 354.07 547.81 353.8 547.54 353.46C546.87 352.62 546.94 351.08 547.46 350.32C548.01 349.53 549 349.18 549.91 349.51C550.89 349.86 551.3 350.59 551.18 351.84V351.85ZM550.73 351.52C550.78 350.4 550.24 349.78 549.28 349.73C548.33 349.69 547.62 350.4 547.61 351.44C547.7 351.46 547.8 351.51 547.9 351.51C548.83 351.51 549.75 351.51 550.74 351.51L550.73 351.52Z" fill="white"/>
<path d="M568.75 363.48H567.92C567.77 362.92 567.73 360.35 567.85 358.87C568.11 358.86 568.38 358.85 568.69 358.83C568.74 359.07 568.78 359.29 568.82 359.52C568.89 359.49 568.97 359.48 569.01 359.43C569.33 359.03 569.74 358.79 570.29 358.77C570.49 359.04 570.39 359.34 570.36 359.67C570.26 359.7 570.16 359.73 570.07 359.75C569.1 359.94 568.81 360.26 568.78 361.26C568.76 361.82 568.78 362.39 568.78 362.96C568.78 363.11 568.76 363.26 568.75 363.49V363.48Z" fill="white"/>
<path d="M579.41 354.21C578.07 354.29 577.11 353.09 577.14 351.82C577.17 350.38 578.11 349.38 579.47 349.39C580.73 349.4 581.68 350.41 581.7 351.76C581.72 353.21 580.79 354.21 579.41 354.2V354.21ZM581.2 351.77C581.2 351.77 581.2 351.64 581.2 351.51C581.13 350.53 580.6 349.93 579.65 349.78C578.81 349.65 578.06 350.12 577.72 350.98C577.54 351.45 577.53 351.94 577.65 352.42C577.97 353.7 579.27 354.27 580.36 353.6C581 353.21 581.23 352.61 581.19 351.76L581.2 351.77Z" fill="white"/>
<path d="M559.81 354.15C559.77 353.98 559.73 353.82 559.69 353.64C559.62 353.66 559.54 353.67 559.49 353.71C558.95 354.22 558.29 354.27 557.61 354.18C557 354.1 556.59 353.72 556.51 353.16C556.41 352.48 556.67 351.96 557.29 351.75C557.69 351.61 558.14 351.58 558.57 351.54C558.92 351.5 559.28 351.52 559.63 351.51C559.83 350.96 559.67 350.52 559.43 350.13C559.2 349.76 558.76 349.74 558.39 349.76C557.9 349.79 557.43 349.93 557.2 350.47C557.11 350.7 557.08 350.68 556.71 350.72C556.77 350.32 556.92 349.98 557.26 349.76C557.91 349.34 558.6 349.26 559.32 349.55C559.77 349.73 560.05 350.07 560.06 350.54C560.09 351.7 560.08 352.85 560.07 354.01C560.07 354.08 560.01 354.14 559.98 354.21C559.92 354.19 559.86 354.17 559.8 354.15H559.81ZM559.66 351.88C558.99 351.83 558.3 351.74 557.64 351.98C557.09 352.18 556.87 352.58 556.95 353.11C557.02 353.54 557.35 353.82 557.88 353.88C559.14 354.04 559.88 353.23 559.66 351.87V351.88Z" fill="white"/>
<path d="M569.87 354.21C568.8 354.29 567.63 353.55 567.57 351.85C567.52 350.44 568.56 349.39 569.88 349.39C570.99 349.39 572.12 350.18 572.13 351.81C572.14 353.23 571.2 354.2 569.86 354.2L569.87 354.21ZM571.74 351.77C571.64 351.43 571.58 351.07 571.44 350.74C571.15 350.08 570.42 349.68 569.75 349.75C568.96 349.83 568.34 350.3 568.15 351C568 351.53 567.97 352.06 568.14 352.6C568.45 353.57 569.44 354.09 570.41 353.78C571.22 353.52 571.7 352.77 571.75 351.77H571.74Z" fill="white"/>
<path d="M477.54 351.83C477.36 350.16 479.08 348.9 480.67 349.56C481.43 349.87 481.86 350.47 481.99 351.24C482.07 351.68 482.03 352.17 481.91 352.6C481.6 353.76 480.62 354.33 479.35 354.18C478.31 354.06 477.57 353.18 477.53 352.02C477.53 351.94 477.53 351.87 477.53 351.81L477.54 351.83ZM481.66 351.76C481.55 351.4 481.48 351 481.31 350.67C480.67 349.44 479.02 349.53 478.39 350.4C477.81 351.21 477.76 352.08 478.21 352.95C478.59 353.7 479.44 354.03 480.25 353.79C481.11 353.54 481.61 352.78 481.66 351.75V351.76Z" fill="white"/>
<path d="M499.23 350.15C499.75 349.62 500.33 349.33 501.05 349.4C501.75 349.47 502.24 349.88 502.4 350.57C502.45 350.79 502.5 351.02 502.5 351.25C502.51 352.1 502.5 352.95 502.5 353.8C502.5 354.03 502.47 354.22 502.08 354.12C502.08 353.87 502.07 353.6 502.07 353.32C502.07 352.62 502.07 351.93 502.07 351.23C502.05 350.28 501.65 349.82 500.83 349.79C499.86 349.76 499.18 350.29 499.13 351.19C499.09 351.91 499.12 352.63 499.12 353.35C499.12 353.56 499.14 353.77 499.1 353.96C499.08 354.05 498.91 354.11 498.78 354.2C498.62 353.34 498.65 349.99 498.81 349.47C499.3 349.45 499.02 349.91 499.24 350.13L499.23 350.15Z" fill="white"/>
<path d="M472.82 354.13C472.79 353.93 472.75 353.71 472.71 353.44C472.58 353.55 472.49 353.63 472.4 353.72C471.82 354.31 471.1 354.29 470.38 354.13C470.02 354.05 469.74 353.79 469.6 353.43C469.52 353.22 469.42 352.99 469.42 352.76C469.4 351.76 469.4 350.75 469.42 349.75C469.42 349.64 469.56 349.53 469.71 349.31C469.77 349.59 469.83 349.72 469.83 349.86C469.83 350.58 469.83 351.3 469.83 352.02C469.83 352.12 469.83 352.23 469.83 352.33C469.85 353.53 470.43 353.85 471.16 353.87C472.04 353.89 472.73 353.24 472.77 352.34C472.8 351.65 472.77 350.95 472.77 350.25C472.77 350.07 472.74 349.88 472.79 349.71C472.82 349.62 472.98 349.57 473.11 349.48C473.15 349.63 473.19 349.7 473.19 349.77C473.19 351.11 473.19 352.45 473.19 353.79C473.19 354.02 473.18 354.22 472.81 354.12L472.82 354.13Z" fill="white"/>
<path d="M456.51 352.88C456.8 352.75 456.86 352.88 456.95 353.07C457.34 353.84 458.12 354.1 458.9 353.77C459.27 353.61 459.46 353.35 459.47 352.94C459.47 352.52 459.28 352.25 458.89 352.13C458.6 352.04 458.3 351.96 458 351.88C457.78 351.82 457.55 351.77 457.33 351.69C456.9 351.54 456.65 351.26 456.63 350.78C456.61 350.3 456.73 349.92 457.17 349.67C457.83 349.29 458.5 349.28 459.16 349.64C459.51 349.83 459.73 350.13 459.72 350.54C459.47 350.67 459.39 350.58 459.27 350.39C458.9 349.78 458.17 349.57 457.54 349.87C457.2 350.03 457.05 350.29 457.05 350.67C457.05 351.04 457.26 351.24 457.57 351.35C457.81 351.44 458.06 351.49 458.31 351.56C458.56 351.63 458.82 351.67 459.06 351.75C459.75 352 459.95 352.32 459.89 353.04C459.84 353.64 459.44 354.09 458.81 354.17C458.48 354.21 458.14 354.21 457.81 354.18C457.07 354.11 456.67 353.7 456.51 352.87V352.88Z" fill="white"/>
<path d="M555.4 350.74C555.18 350.56 555.05 350.5 554.98 350.4C554.57 349.8 553.89 349.58 553.24 349.87C552.9 350.02 552.69 350.29 552.69 350.64C552.69 350.97 552.89 351.22 553.21 351.33C553.48 351.42 553.75 351.49 554.03 351.56C554.28 351.63 554.53 351.67 554.77 351.76C555.41 352 555.61 352.31 555.57 353C555.54 353.58 555.18 354.06 554.61 354.15C554.16 354.22 553.68 354.22 553.23 354.15C552.63 354.05 552.29 353.56 552.22 352.88C552.43 352.76 552.52 352.85 552.62 353.05C553.01 353.81 553.7 354.09 554.47 353.82C554.93 353.66 555.13 353.41 555.14 352.98C555.16 352.53 555.01 352.3 554.52 352.12C554.23 352.01 553.93 351.96 553.63 351.88C553.41 351.82 553.18 351.77 552.96 351.69C552.57 351.53 552.33 351.26 552.3 350.82C552.27 350.35 552.38 349.95 552.81 349.7C553.46 349.31 554.13 349.3 554.8 349.64C555.16 349.82 555.38 350.12 555.38 350.76L555.4 350.74Z" fill="white"/>
<path d="M484.75 358.86H485.64C485.79 359.41 485.81 362.68 485.67 363.48H484.75V358.86Z" fill="white"/>
<path d="M509.95 352.7C509.58 353.88 508.92 354.31 507.67 354.2C506.69 354.11 505.9 353.34 505.8 352.34C505.71 351.44 505.78 350.59 506.54 349.94C507.29 349.29 508.46 349.21 509.28 349.76C509.67 350.02 509.84 350.4 509.96 350.82C509.74 350.97 509.59 350.95 509.5 350.73C509.35 350.35 509.11 350.07 508.73 349.91C507.66 349.45 506.44 350.1 506.27 351.26C506.22 351.61 506.22 351.98 506.27 352.34C506.36 353.13 506.93 353.72 507.7 353.87C508.44 354.02 509.16 353.65 509.53 352.9C509.62 352.72 509.67 352.57 509.97 352.71L509.95 352.7Z" fill="white"/>
<path d="M497.1 354.15C496.43 354.22 496.81 353.67 496.54 353.5C496.46 353.57 496.37 353.65 496.28 353.73C495.69 354.32 494.97 354.3 494.26 354.12C493.78 354 493.43 353.62 493.41 353.12C493.37 351.94 493.39 350.75 493.4 349.57C493.4 349.53 493.47 349.5 493.56 349.41C493.62 349.56 493.72 349.68 493.72 349.8C493.73 350.52 493.72 351.24 493.72 351.96C493.72 352.17 493.72 352.37 493.73 352.58C493.83 353.42 494.31 353.88 495.07 353.88C495.91 353.88 496.6 353.3 496.63 352.48C496.66 351.71 496.64 350.93 496.64 350.16C496.64 349.98 496.64 349.8 496.67 349.62C496.68 349.56 496.81 349.5 496.9 349.48C496.94 349.48 497.01 349.56 497.05 349.62C497.08 349.66 497.07 349.72 497.07 349.77C497.07 351.21 497.07 352.65 497.07 354.14L497.1 354.15Z" fill="white"/>
<path d="M451.95 354.23C451.74 354.14 451.58 354.12 451.55 354.04C451.5 353.9 451.52 353.74 451.52 353.58C451.52 352.42 451.52 351.26 451.52 350.1C451.52 349.92 451.54 349.75 451.56 349.57C452.11 349.43 451.86 349.92 452.06 350.12C452.18 350.02 452.3 349.91 452.43 349.82C453.01 349.4 453.63 349.27 454.33 349.52C454.88 349.71 455.22 350.1 455.24 350.65C455.29 351.78 455.26 352.92 455.25 354.05C455.25 354.08 455.18 354.12 455.08 354.2C455.02 354.06 454.92 353.95 454.92 353.83C454.91 353.11 454.92 352.39 454.92 351.66C454.92 351.48 454.92 351.3 454.92 351.12C454.85 350.22 454.38 349.75 453.56 349.75C452.73 349.75 452.03 350.33 451.98 351.14C451.94 351.81 451.97 352.48 451.97 353.15C451.97 353.46 451.97 353.76 451.97 354.22L451.95 354.23Z" fill="white"/>
<path d="M461.32 349.97C461.06 349.86 460.85 349.77 460.64 349.69C460.64 349.65 460.65 349.61 460.66 349.56C460.86 349.51 461.06 349.46 461.19 349.42C461.49 349.08 461.04 348.51 461.7 348.34C461.73 348.71 461.76 349.03 461.79 349.44C462.18 349.49 462.57 349.53 463.06 349.59C462.66 350.01 462.21 349.71 461.81 349.91C461.79 350.04 461.75 350.21 461.75 350.38C461.75 351.2 461.74 352.03 461.75 352.85C461.75 353.68 461.98 353.88 462.82 353.85C462.92 353.85 463.02 353.95 463.2 354.04C462.75 354.28 462.39 354.23 462.04 354.17C461.76 354.11 461.51 353.94 461.44 353.63C461.38 353.36 461.32 353.08 461.32 352.8C461.31 351.85 461.32 350.9 461.32 349.98V349.97Z" fill="white"/>
<path d="M475.39 349.95C475.39 350.97 475.39 352 475.39 353.03C475.39 353.63 475.64 353.86 476.24 353.87C476.32 353.87 476.39 353.84 476.47 353.83C476.51 353.83 476.56 353.85 476.67 353.87C476.61 353.98 476.58 354.14 476.51 354.15C475.47 354.35 474.93 353.9 474.95 353.01C474.96 352.24 474.95 351.47 474.95 350.7C474.95 350.45 474.95 350.19 474.95 349.93C474.7 349.85 474.5 349.78 474.29 349.72C474.29 349.68 474.29 349.63 474.29 349.59C474.48 349.53 474.66 349.47 474.84 349.41C475.16 349.14 474.67 348.51 475.35 348.35C475.38 348.72 475.41 349.05 475.44 349.44C475.84 349.49 476.23 349.54 476.72 349.6C476.3 350.01 475.84 349.7 475.4 349.96L475.39 349.95Z" fill="white"/>
<path d="M575.53 347.21C575.64 347.26 575.78 347.27 575.85 347.35C575.9 347.41 575.88 347.55 575.88 347.65C575.88 349.68 575.88 351.72 575.88 353.75C575.88 353.99 575.91 354.25 575.53 354.16C575.41 353.56 575.4 347.92 575.53 347.22V347.21Z" fill="white"/>
<path d="M573.51 347.2C573.62 347.26 573.77 347.29 573.81 347.37C573.86 347.47 573.83 347.62 573.83 347.75C573.83 349.71 573.83 351.67 573.83 353.63C573.83 353.76 573.86 353.9 573.81 354.01C573.77 354.1 573.63 354.13 573.52 354.2C573.36 353.57 573.36 347.91 573.51 347.2Z" fill="white"/>
<path d="M523.81 354.23V347.29C524.04 347.18 524.18 347.2 524.21 347.46C524.22 347.56 524.21 347.67 524.21 347.77C524.21 349.73 524.21 351.69 524.21 353.65C524.21 353.78 524.24 353.93 524.18 354.03C524.14 354.11 523.99 354.14 523.8 354.23H523.81Z" fill="white"/>
<path d="M449.42 347.66C449.58 347.75 449.72 347.79 449.76 347.87C449.81 347.97 449.79 348.12 449.79 348.25C449.79 350.05 449.79 351.85 449.79 353.65C449.79 353.78 449.82 353.93 449.76 354.03C449.72 354.11 449.57 354.14 449.46 354.2C449.32 353.62 449.28 348.8 449.42 347.66Z" fill="white"/>
<path d="M468.24 353.85C468.24 353.97 468.24 354.05 468.22 354.07C467.48 354.51 466.61 354.12 466.56 353.29C466.51 352.57 466.54 351.85 466.54 351.13C466.54 350.75 466.54 350.36 466.54 349.94C466.28 349.87 466.05 349.81 465.63 349.7C466.02 349.57 466.24 349.49 466.48 349.41C466.52 349.06 466.56 348.72 466.63 348.19C466.78 348.44 466.88 348.53 466.89 348.62C466.91 348.87 466.89 349.12 466.89 349.44C467.37 349.49 467.78 349.53 468.31 349.58C467.84 350.01 467.34 349.67 466.9 349.98C466.9 350.4 466.9 350.89 466.9 351.37C466.9 351.81 466.9 352.25 466.9 352.68C466.91 353.69 467.18 353.93 468.24 353.85Z" fill="white"/>
<path d="M562.22 350.25C562.61 349.83 563.02 349.4 563.78 349.44C563.68 349.6 563.64 349.78 563.56 349.8C563.13 349.9 562.7 350.01 562.44 350.41C562.15 350.86 562.1 351.37 562.1 351.89C562.1 352.56 562.1 353.23 562.1 353.89C562.1 354.13 561.98 354.21 561.75 354.15C561.63 353.56 561.62 350.23 561.75 349.55C562.34 349.49 561.95 350.06 562.22 350.25Z" fill="white"/>
<path d="M567.04 349.44C566.84 349.65 566.77 349.79 566.67 349.83C565.6 350.21 565.35 350.54 565.33 351.68C565.32 352.4 565.33 353.12 565.33 353.84C565.33 354.09 565.26 354.25 564.97 354.13C564.83 353.24 564.86 350 565.02 349.5C565.2 349.58 565.337 349.847 565.43 350.3C565.78 349.78 566.21 349.46 567.04 349.44Z" fill="white"/>
<path d="M504.13 354.13C504.02 352.83 504.06 350.04 504.2 349.42C504.31 349.5 504.45 349.55 504.48 349.63C504.53 349.77 504.51 349.93 504.51 350.09C504.51 351.33 504.51 352.57 504.51 353.8C504.51 354.03 504.5 354.23 504.13 354.12V354.13Z" fill="white"/>
<path d="M464.7 349.46C464.7 349.81 464.7 350.12 464.7 350.42C464.7 351.56 464.7 352.69 464.7 353.83C464.7 354.08 464.65 354.25 464.3 354.11C464.3 354 464.27 353.88 464.27 353.76C464.27 352.5 464.27 351.23 464.27 349.97C464.27 349.75 464.2 349.48 464.7 349.46Z" fill="white"/>
<path d="M511.37 349.35C511.53 349.6 511.66 349.7 511.66 349.8C511.68 350.49 511.67 351.19 511.67 351.89C511.67 352.63 511.67 353.37 511.67 354.14H511.32C511.19 353.5 511.19 350.17 511.37 349.35Z" fill="white"/>
<path d="M563.89 358.03C564.08 357.53 564.23 357.15 564.39 356.74H565.52C565.26 357.15 565.03 357.51 564.78 357.86C564.58 358.15 564.29 358.04 563.88 358.03H563.89Z" fill="white"/>
<path d="M472.45 357.99C472.62 357.55 472.78 357.15 472.95 356.73H474.01C473.87 357.19 473.57 357.5 473.34 357.85C473.12 358.18 472.81 358.05 472.46 357.99H472.45Z" fill="white"/>
<path d="M485.22 358C484.91 358.02 484.57 357.68 484.58 357.37C484.58 357.08 484.87 356.82 485.2 356.81C485.57 356.8 485.79 356.99 485.81 357.34C485.83 357.7 485.58 357.99 485.22 358.01V358Z" fill="white"/>
</svg>
