<svg id="Capa_1" data-name="Capa 1" xmlns="http://www.w3.org/2000/svg" viewBox="0 0 257 59"><defs><style>.cls-1{fill:#d1bda0;}</style></defs><path class="cls-1" d="M32.31,12.64H.36V49.81H37.63V12.64Zm-4,9.29v6.19H9.68V21.93ZM9.68,43.61V37.42H28.31v6.19Z"/><path class="cls-1" d="M116.55,12.64H84.21V49.81h9.32v-6.2h18.63v6.2h9.32V12.64Zm-23,21.68V21.93h18.63V34.32Z"/><polygon class="cls-1" points="50.05 40.51 50.05 12.63 40.74 12.63 40.74 49.8 49.12 49.8 51.33 49.8 78 49.8 78 40.51 50.05 40.51"/><polygon class="cls-1" points="167.03 12.63 157.36 12.63 148.52 28.12 137.01 28.12 137.01 12.63 127.69 12.63 127.69 49.8 137.01 49.8 137.01 34.32 148.52 34.32 157.32 49.8 167.03 49.93 156.51 31.81 167.03 12.63"/><rect class="cls-1" x="177.38" y="0.25" width="12.42" height="55.75"/><path class="cls-1" d="M237.14.25H221.2L201,56h15.47l3.18-9.29h19L241.75,56h15.57ZM221.86,37.42l7.07-20.34L236,37.42Z"/></svg>