<svg xmlns="http://www.w3.org/2000/svg" xmlns:xlink="http://www.w3.org/1999/xlink" width="1200" zoomAndPan="magnify" viewBox="0 0 900 899.99999" height="1200" preserveAspectRatio="xMidYMid meet" version="1.0"><defs><g/><clipPath id="e6f6b39926"><rect x="0" width="215" y="0" height="83"/></clipPath><clipPath id="c89efd6ab2"><rect x="0" width="113" y="0" height="139"/></clipPath></defs><rect x="-90" width="1080" fill="#ffffff" y="-89.999999" height="1079.999988" fill-opacity="1"/><rect x="-90" width="1080" fill="#ffffff" y="-89.999999" height="1079.999988" fill-opacity="1"/><g transform="matrix(1, 0, 0, 1, 287, 408)"><g clip-path="url(#e6f6b39926)"><g fill="#d9d9d9" fill-opacity="1"><g transform="translate(0.12605, 67.886832)"><g><path d="M 38.65625 -28.484375 L 38.65625 -35.21875 L 14.3125 -35.21875 L 14.3125 -28.484375 Z M 3.4375 0 L 3.4375 -46.09375 L 49.53125 -46.09375 L 49.53125 0 Z M 14.3125 -10.875 L 38.65625 -10.875 L 38.65625 -17.609375 L 14.3125 -17.609375 Z M 14.3125 -10.875 "/></g></g></g><g fill="#d9d9d9" fill-opacity="1"><g transform="translate(53.08558, 67.886832)"><g><path d="M 49.53125 0 L 3.4375 0 L 3.4375 -46.09375 L 14.3125 -46.09375 L 14.3125 -10.875 L 49.53125 -10.875 Z M 49.53125 0 "/></g></g></g><g fill="#d9d9d9" fill-opacity="1"><g transform="translate(106.045109, 67.886832)"><g><path d="M 49.53125 -46.09375 L 49.53125 0 L 38.65625 0 L 38.65625 -8.8125 L 14.3125 -8.8125 L 14.3125 0 L 3.4375 0 L 3.4375 -46.09375 Z M 14.3125 -19.671875 L 38.65625 -19.671875 L 38.65625 -35.21875 L 14.3125 -35.21875 Z M 14.3125 -19.671875 "/></g></g></g><g fill="#d9d9d9" fill-opacity="1"><g transform="translate(159.004639, 67.886832)"><g><path d="M 51.796875 0 L 39.421875 0 L 28.6875 -17.609375 L 14.3125 -17.609375 L 14.3125 0 L 3.4375 0 L 3.4375 -46.09375 L 14.3125 -46.09375 L 14.3125 -28.484375 L 28.75 -28.484375 L 39.34375 -46.09375 L 51.453125 -46.09375 L 38.59375 -22.5 Z M 51.796875 0 "/></g></g></g></g></g><g transform="matrix(1, 0, 0, 1, 503, 380)"><g clip-path="url(#c89efd6ab2)"><g fill="#eeff06" fill-opacity="1"><g transform="translate(0.718904, 103.811355)"><g><path d="M 2.414062 -72.925781 L 26.675781 -72.925781 L 26.675781 3.699219 L 2.414062 3.699219 Z M 9.8125 -65.527344 L 9.8125 -3.699219 L 19.277344 -3.699219 L 19.277344 -65.527344 Z M 9.8125 -65.527344 "/></g></g></g><g fill="#eeff06" fill-opacity="1"><g transform="translate(34.739891, 103.811355)"><g><path d="M 49.207031 -8.53125 L 23.371094 -8.53125 L 23.371094 -12.226562 L 26.875 -11.042969 L 21.882812 3.699219 L -3.691406 3.699219 L 24.03125 -72.925781 L 48.746094 -72.925781 L 76.46875 3.699219 L 50.699219 3.699219 L 45.707031 -11.042969 L 49.207031 -12.226562 Z M 51.859375 -15.925781 L 56.851562 -1.1875 L 53.347656 0 L 53.347656 -3.699219 L 71.199219 -3.699219 L 71.199219 0 L 67.722656 1.257812 L 42.671875 -67.96875 L 46.152344 -69.226562 L 46.152344 -65.527344 L 26.625 -65.527344 L 26.625 -69.226562 L 30.101562 -67.96875 L 5.054688 1.257812 L 1.578125 0 L 1.578125 -3.699219 L 19.230469 -3.699219 L 19.230469 0 L 15.726562 -1.1875 L 20.71875 -15.925781 Z M 41.367188 -24.058594 L 32.785156 -49.402344 L 36.289062 -50.589844 L 39.796875 -49.414062 L 31.316406 -24.070312 L 27.808594 -25.246094 L 27.808594 -28.941406 L 44.867188 -28.941406 L 44.867188 -25.246094 Z M 50.023438 -21.546875 L 22.671875 -21.546875 L 36.269531 -62.179688 L 48.371094 -26.429688 Z M 50.023438 -21.546875 "/></g></g></g><g fill="#d9d9d9" fill-opacity="1"><g transform="translate(0.718904, 103.811355)"><g><path d="M 22.96875 -69.21875 L 22.96875 0 L 6.109375 0 L 6.109375 -69.21875 Z M 22.96875 -69.21875 "/></g></g></g><g fill="#d9d9d9" fill-opacity="1"><g transform="translate(34.739891, 103.811355)"><g><path d="M 49.203125 -12.234375 L 23.375 -12.234375 L 19.234375 0 L 1.578125 0 L 26.625 -69.21875 L 46.15625 -69.21875 L 71.203125 0 L 53.34375 0 Z M 44.875 -25.25 L 36.28125 -50.59375 L 27.8125 -25.25 Z M 44.875 -25.25 "/></g></g></g></g></g></svg>