<svg id="Capa_1" data-name="Capa 1" xmlns="http://www.w3.org/2000/svg" viewBox="0 0 1922 3280"><defs><style>.cls-1{fill:#1d1d1b;}</style></defs><polygon class="cls-1" points="1920.79 48.72 1918.16 50.14 1915.41 49.15 1912.57 49.99 1907.99 50.12 1905.33 47.35 1902.5 49.07 1899.38 49.58 1896.14 49.68 1893.13 51.62 1889.84 51.7 1887.04 51.12 1884.73 54.83 1882.3 50.94 1880.33 55.11 1877.82 52.97 1875.31 54.53 1872.58 52.85 1869.86 55.8 1866.74 52.25 1863.12 53.67 1860.1 51.83 1858.22 48.22 1853.85 48.9 1853.16 44.13 1850.09 42.48 1849.42 38.18 1845.81 36.69 1844.25 33.38 1841.77 29.37 1838.89 31.24 1836.5 32.62 1833.76 33.12 1831 33.5 1828.25 32.88 1826.63 30.23 1824.25 28.4 1823.16 26.61 1823.18 25.51 1823.15 25.47 1823.18 23.73 1821.21 20.83 1819.98 17.52 1816.79 13.53 1816.36 10.43 1813.93 10.37 1810.78 10.9 1808.61 13.64 1808.2 17.89 1804.38 18.91 1801.46 21.05 1800.85 26.01 1796.88 26.72 1794.43 29.38 1791.53 31.25 1789.41 35.42 1785.96 36.02 1782.69 34.44 1780 35.6 1777.67 36.43 1774.05 35.83 1770.35 35.02 1769.34 39.77 1765.17 39.67 1764.03 42.89 1762.3 45.73 1757.53 46.21 1754.92 45.88 1752.13 48.48 1749.32 47.22 1746.62 46.65 1744.81 44.57 1741.44 43.53 1739.56 40.05 1735.74 41.32 1733.46 38.91 1731.17 35.6 1728.08 37.5 1726.49 34.82 1723.58 31.2 1721.51 30.35 1719.86 28.44 1717.08 26.76 1714.55 29.16 1711.24 30.33 1708.08 32.29 1704.67 33.34 1701.31 34.39 1698.09 36.08 1694.4 35.11 1690.89 34.56 1687.34 36.69 1684.33 35.19 1681.82 32.78 1678.19 32.92 1674.58 33.68 1672.18 31.38 1669.38 29.97 1666.51 28.74 1663.75 31.24 1660.95 31.36 1658.2 31.95 1654.42 32.6 1650.1 30.63 1646.58 32.53 1644.15 37.69 1641.39 38.23 1638.53 36.49 1635.49 37.13 1632.31 36.33 1629.44 39.09 1626.99 36.92 1624.19 38.45 1620.16 36.59 1616.33 38.96 1613.11 38.12 1610.28 38.57 1605.98 40.68 1603.2 43.91 1599.16 41.34 1595.04 42.15 1593.27 43.82 1590.87 42.62 1588.43 44.51 1585.75 44.13 1583.07 44.4 1580.38 43.58 1577.82 42.37 1574.71 44.18 1572.14 42.78 1569.08 40.84 1565.77 39.65 1563.76 34.79 1560.34 33.48 1556.4 35.62 1554.02 31.94 1550.97 34.33 1548.24 33.4 1544.8 32.48 1543.19 36.49 1539.92 35.14 1536.95 35.82 1534.57 39.3 1530.85 38.83 1527.87 40.45 1526.01 39.51 1523.1 41.65 1520.41 42.59 1517.29 41.61 1517.46 39.42 1517.32 39.41 1517.46 37.63 1513.38 37.42 1512.48 33.24 1509.68 31.62 1504.97 30.51 1501.45 27.8 1499.89 24.23 1499.64 20.2 1499.65 17.86 1499.65 17.86 1499.65 16.08 1498.34 12.7 1494.37 14.27 1490.12 12.42 1487.72 13.41 1486.45 16.78 1481.71 16.82 1480.99 20.32 1480.41 23.2 1477.98 21.54 1474.38 25.5 1471.36 25.45 1468.34 25.39 1465.31 25.36 1461.86 25.93 1459.41 29.04 1458.5 32.73 1454.56 34.24 1451.89 36.07 1450.64 38.72 1448.12 41.28 1445.48 41.3 1442.58 40.88 1439.47 39.94 1437.23 41.37 1434.78 41.64 1432.45 40.5 1429.45 37.71 1428.44 32.86 1424.44 31.9 1420.89 30.17 1416.83 32.02 1413.54 31.44 1409.54 31.27 1407.22 33.41 1403.96 32.76 1401.41 33.77 1399.69 37.52 1395.83 37.38 1395.2 41.96 1392.58 44.24 1389.28 45.99 1386.02 49.1 1381.88 48.65 1378.51 45.23 1375.81 47.5 1373.04 48.6 1369.83 48.22 1365.4 51.61 1363.86 48.57 1362.26 44.4 1358.38 43.08 1356.04 42.55 1353.73 41.26 1351.04 39.52 1347.91 38.81 1345.34 36.82 1342 35.4 1340.13 33.74 1339.53 38.28 1336.67 40.4 1333.45 41.78 1331.35 44.65 1328.87 47.07 1325.4 47.23 1323.03 47.09 1319.9 48.33 1317.36 45.65 1314.9 44.89 1310.42 47.51 1307.81 42.34 1303.73 43.79 1298.6 43.48 1297.14 40.25 1295.71 37.95 1293.75 36.61 1291.78 33.99 1288.96 35.63 1284.66 33.36 1281.09 35.28 1277.69 34.89 1274.4 34.76 1270.89 34.57 1267.24 34.22 1264.31 31.34 1262.87 29.52 1260.79 27.59 1259.25 24.98 1256.36 23.27 1254.46 19.75 1251.46 17.92 1248.12 17.08 1245.22 19.83 1241.72 18.56 1239.1 20.53 1238.41 23.93 1235.86 26.79 1233 29.55 1231.98 33.46 1230.1 36.47 1225.69 35.02 1224.7 37.22 1224.38 36.17 1222.8 35.94 1219.61 34.73 1216.27 34.16 1213.23 34.13 1210.27 34.21 1207.83 34.65 1207.61 29.58 1202.94 28.61 1202.02 23.98 1200.15 20.06 1201.7 17.96 1199.91 18.6 1201.7 16.18 1199.01 17.14 1196.05 19.18 1193.22 21.83 1191.46 25.64 1187.43 26.23 1186.13 29.74 1182.7 30.89 1182.91 32.61 1182.7 32.68 1183.14 36.37 1178.81 35.13 1176.01 36.65 1172.79 37.49 1169.26 36.6 1166.8 39.88 1163.31 40.35 1161.29 34.64 1157.94 35.65 1155.32 36.41 1152.01 37.13 1149.04 38.82 1146.76 42.47 1143.05 39.56 1140.1 42.79 1137.12 39.21 1133.8 41.46 1131.07 38.75 1127.97 41.38 1125.35 41.24 1122.75 37.26 1120.32 37.84 1117.52 39.91 1114.83 37.48 1111.94 38.74 1108.54 37.27 1105.89 35.13 1105.31 33 1102.08 32.16 1099.28 31.02 1095.57 32.33 1092.2 34.45 1088.36 32.09 1084.88 32.98 1080.21 33.65 1078.06 35.8 1075.31 35.66 1072.1 37.23 1069.87 40 1066.9 40.68 1063.98 39.78 1063.35 36.33 1062.99 34.45 1063.79 31.61 1063.35 31.39 1063.79 29.83 1060.32 28.15 1058.21 25.84 1057.85 20.94 1053.98 20.82 1051.12 20.83 1048.29 17.94 1045.2 19.5 1042.45 16.76 1039.26 19.95 1036.19 22.09 1035.32 26.32 1033.93 29.19 1030.95 30.39 1028.54 28.55 1026.07 30.34 1023.27 30.61 1020.59 32.48 1017.55 31.2 1014.65 32.51 1010.87 31.5 1009 35.74 1007.3 38.3 1005.81 41.56 1004.8 39.08 1004.18 37.96 1003.37 34.31 998.82 30.93 995.29 32.9 992.09 30.69 988.91 32.72 988.5 36.78 987 40.52 983.29 42.82 979.68 44.95 976.14 42.16 972.68 41.42 969.68 40.88 966.64 41.17 963.57 39.93 961.19 43.12 958.13 44.12 956.27 46.22 955.17 45.35 952.54 46.77 949.79 45.77 946.95 46.62 942.37 46.74 939.71 43.98 936.88 45.69 933.76 46.21 930.52 46.3 927.51 48.25 924.22 48.33 921.42 47.75 919.11 51.46 916.67 47.57 914.71 51.74 912.2 49.6 909.68 51.16 906.96 49.48 904.24 52.43 901.12 48.88 897.5 50.3 894.48 48.46 892.6 44.85 888.23 45.52 887.53 40.76 884.47 39.11 883.8 34.81 880.19 33.32 878.63 30 876.15 26 873.27 27.86 870.88 29.25 868.14 29.75 865.38 30.13 862.63 29.5 861.01 26.85 858.63 25.03 857.54 23.24 857.56 22.14 857.53 22.09 857.56 20.36 855.59 17.46 854.36 14.14 851.17 10.15 850.74 7.05 848.31 7 845.15 7.53 842.99 10.27 842.58 14.51 838.76 15.53 835.84 17.68 835.23 22.64 831.26 23.35 828.81 26 825.91 27.88 823.79 32.05 820.34 32.64 817.07 31.07 814.38 32.23 812.05 33.06 808.43 32.46 804.73 31.64 803.72 36.39 799.55 36.3 798.41 39.52 796.68 42.35 791.91 42.84 789.3 42.51 786.51 45.11 783.7 43.84 781 43.27 779.19 41.2 775.82 40.16 773.94 36.67 770.12 37.95 767.84 35.53 765.54 32.23 762.46 34.13 760.87 31.45 757.96 27.83 755.89 26.98 754.24 25.07 751.46 23.38 748.93 25.79 745.62 26.96 742.46 28.92 739.05 29.97 735.69 31.02 732.47 32.71 728.78 31.73 725.26 31.18 721.72 33.32 718.71 31.82 716.2 29.41 712.58 29.55 708.96 30.3 706.56 28 703.76 26.59 700.89 25.37 698.13 27.87 695.33 27.99 692.58 28.58 688.8 29.23 684.48 27.26 680.95 29.16 678.53 34.32 675.77 34.86 672.9 33.12 669.87 33.75 666.68 32.96 663.82 35.72 661.38 33.55 658.57 35.08 654.54 33.22 650.71 35.59 647.49 34.74 644.66 35.2 640.36 37.31 637.58 40.54 633.54 37.97 629.41 38.77 627.65 40.45 625.25 39.25 622.81 41.13 620.13 40.76 617.45 41.03 614.76 40.21 612.2 38.99 609.09 40.81 606.52 39.41 603.46 37.47 600.14 36.27 598.13 31.41 594.72 30.11 590.78 32.25 588.4 28.57 585.35 30.95 582.62 30.03 579.18 29.1 577.57 33.11 574.3 31.77 571.33 32.44 568.95 35.93 565.23 35.46 562.25 37.08 560.39 36.14 557.48 38.28 554.79 39.22 551.67 38.24 551.84 36.04 551.7 36.04 551.84 34.26 547.76 34.05 546.86 29.86 544.06 28.25 539.35 27.14 535.83 24.43 534.27 20.86 534.02 16.83 534.03 14.49 534.02 14.48 534.03 12.71 532.72 9.33 528.75 10.89 524.5 9.05 522.1 10.04 520.83 13.41 516.09 13.45 515.37 16.94 514.79 19.83 512.36 18.16 508.76 22.13 505.74 22.08 502.72 22.02 499.69 21.99 496.24 22.56 493.79 25.66 492.88 29.36 488.94 30.87 486.27 32.69 485.02 35.35 482.5 37.91 479.86 37.93 476.95 37.5 473.85 36.57 471.61 38 469.16 38.26 466.83 37.13 463.83 34.34 462.82 29.48 458.82 28.53 455.27 26.8 451.21 28.65 447.92 28.06 443.92 27.9 441.6 30.04 438.34 29.39 435.79 30.39 434.07 34.15 430.21 34.01 429.57 38.59 426.96 40.87 423.66 42.62 420.4 45.73 416.26 45.28 412.89 41.86 410.19 44.13 407.42 45.23 404.21 44.85 399.78 48.23 398.24 45.19 396.64 41.03 392.76 39.71 390.42 39.18 388.11 37.89 385.42 36.15 382.29 35.44 379.72 33.45 376.38 32.03 374.51 30.36 373.91 34.91 371.05 37.03 367.83 38.41 365.73 41.28 363.25 43.69 359.78 43.86 357.41 43.72 354.28 44.96 351.74 42.28 349.28 41.52 344.8 44.14 342.19 38.97 338.11 40.42 332.98 40.1 331.52 36.88 330.09 34.58 328.13 33.24 326.16 30.61 323.35 32.25 319.04 29.99 315.47 31.91 312.07 31.52 308.78 31.39 305.27 31.2 301.62 30.85 298.69 27.97 297.25 26.15 295.17 24.22 293.63 21.61 290.74 19.89 288.84 16.37 285.84 14.55 282.5 13.71 279.6 16.46 276.1 15.19 273.48 17.16 272.79 20.56 270.24 23.42 267.38 26.18 266.36 30.09 264.48 33.1 260.07 31.65 259.08 33.85 258.76 32.8 257.18 32.57 253.99 31.36 250.65 30.79 247.61 30.76 244.65 30.83 242.21 31.27 241.99 26.21 237.32 25.24 236.4 20.61 234.53 16.68 236.08 14.58 234.29 15.23 236.08 12.8 233.39 13.77 230.43 15.81 227.6 18.46 225.84 22.27 221.81 22.86 220.51 26.36 217.09 27.52 217.29 29.23 217.09 29.3 217.52 33 213.19 31.76 210.39 33.27 207.17 34.12 203.64 33.23 201.18 36.51 197.69 36.97 195.67 31.27 192.32 32.28 189.7 33.04 186.39 33.76 183.42 35.45 181.14 39.09 177.43 36.19 174.48 39.42 171.5 35.83 168.18 38.08 165.45 35.38 162.35 38.01 159.73 37.87 157.13 33.89 154.7 34.46 151.9 36.53 149.21 34.11 146.32 35.37 142.92 33.9 140.27 31.76 139.69 29.63 136.46 28.79 133.66 27.65 129.95 28.96 126.58 31.08 122.74 28.72 119.26 29.6 114.59 30.27 112.44 32.43 109.69 32.29 106.48 33.86 104.25 36.63 101.28 37.31 98.36 36.41 97.73 32.95 97.36 31.07 98.17 28.23 97.73 28.02 98.17 26.45 94.69 24.77 92.59 22.47 92.23 17.57 88.36 17.44 85.5 17.46 82.67 14.57 79.58 16.13 76.83 13.39 73.64 16.58 70.57 18.72 69.7 22.95 68.31 25.82 65.33 27.02 62.92 25.18 60.45 26.97 57.65 27.24 54.97 29.11 51.93 27.83 49.03 29.13 45.25 28.13 43.38 32.37 41.68 34.93 40.19 38.19 39.18 35.71 38.56 34.59 37.75 30.93 33.2 27.56 29.67 29.52 26.47 27.32 23.29 29.34 22.88 33.41 21.38 37.15 17.67 39.45 14.06 41.58 10.52 38.78 7.05 38.05 4.06 37.5 1.02 37.8 0 37.39 0 39.17 0 56.63 0 58.41 0 58.56 0 147 0 157.14 0 3117 0 3132 0 3198.1 0 3199.88 0 3208.69 0 3210.47 0 3211.22 0 3213 0 3213.69 0 3222.68 0 3224.46 1.21 3225.42 3.84 3224 6.59 3224.99 9.43 3224.15 14.01 3224.02 16.67 3226.79 19.5 3225.07 22.62 3224.56 25.86 3224.47 28.86 3222.52 32.16 3222.44 34.96 3223.02 37.27 3219.31 39.7 3223.2 41.67 3219.03 44.18 3221.17 46.7 3219.61 49.42 3221.29 52.14 3218.34 55.26 3221.89 58.88 3220.47 61.9 3222.31 63.78 3225.92 68.15 3225.24 68.84 3230.01 71.91 3231.66 72.58 3235.96 76.19 3237.45 77.75 3240.77 80.23 3244.77 83.11 3242.9 85.5 3241.52 88.24 3241.02 91 3240.64 93.75 3241.27 95.37 3243.92 97.75 3245.74 98.84 3247.53 98.82 3248.63 98.85 3248.67 98.82 3250.41 100.78 3253.31 102.02 3256.63 105.21 3260.62 105.64 3263.72 108.07 3263.77 111.22 3263.24 113.39 3260.5 113.8 3256.26 117.62 3255.24 120.54 3253.09 121.15 3248.13 125.11 3247.42 127.57 3244.77 130.47 3242.89 132.59 3238.72 136.04 3238.13 139.31 3239.7 142 3238.54 144.33 3237.71 147.95 3238.31 151.65 3239.12 152.66 3234.38 156.83 3234.47 157.97 3231.25 159.7 3228.42 164.47 3227.93 167.08 3228.26 169.87 3225.66 172.68 3226.92 175.38 3227.49 177.19 3229.57 180.56 3230.61 182.44 3234.1 186.25 3232.82 188.54 3235.24 190.83 3238.54 193.92 3236.64 195.51 3239.32 198.42 3242.94 200.49 3243.79 202.14 3245.7 204.92 3247.39 207.45 3244.98 210.76 3243.81 213.92 3241.85 217.33 3240.8 220.69 3239.75 223.91 3238.06 227.6 3239.03 231.11 3239.59 234.66 3237.45 237.67 3238.95 240.18 3241.36 243.81 3241.22 247.42 3240.47 249.82 3242.77 252.62 3244.17 255.49 3245.4 258.25 3242.9 261.05 3242.78 263.8 3242.19 267.58 3241.54 271.9 3243.51 275.43 3241.61 277.85 3236.45 280.61 3235.91 283.48 3237.65 286.51 3237.02 289.69 3237.81 292.56 3235.05 295 3237.22 297.81 3235.69 301.84 3237.55 305.67 3235.18 308.89 3236.03 311.72 3235.57 316.01 3233.46 318.8 3230.23 322.84 3232.8 326.96 3232 328.73 3230.32 331.13 3231.52 333.57 3229.64 336.25 3230.01 338.93 3229.74 341.62 3230.56 344.18 3231.78 347.29 3229.96 349.86 3231.36 352.92 3233.3 356.24 3234.5 358.25 3239.35 361.66 3240.66 365.6 3238.52 367.98 3242.2 371.03 3239.82 373.76 3240.74 377.2 3241.66 378.81 3237.66 382.08 3239 385.05 3238.32 387.43 3234.84 391.15 3235.31 394.13 3233.69 395.99 3234.63 398.9 3232.49 401.59 3231.55 404.71 3232.53 404.54 3234.72 404.68 3234.73 404.54 3236.51 408.62 3236.72 409.52 3240.9 412.32 3242.52 417.02 3243.63 420.55 3246.34 422.11 3249.91 422.36 3253.94 422.35 3256.28 422.35 3256.29 422.35 3258.06 423.66 3261.44 427.63 3259.88 431.88 3261.72 434.28 3260.73 435.55 3257.36 440.29 3257.32 441.01 3253.82 441.59 3250.94 444.02 3252.61 447.62 3248.64 450.64 3248.69 453.66 3248.75 456.69 3248.78 460.14 3248.21 462.59 3245.11 463.5 3241.41 467.44 3239.9 470.11 3238.07 471.36 3235.42 473.88 3232.86 476.52 3232.84 479.43 3233.26 482.53 3234.2 484.77 3232.77 487.22 3232.51 489.55 3233.64 492.55 3236.43 493.56 3241.28 497.56 3242.24 501.11 3243.97 505.17 3242.12 508.46 3242.7 512.46 3242.87 514.78 3240.73 518.04 3241.38 520.59 3240.37 522.31 3236.62 526.17 3236.76 526.8 3232.18 529.42 3229.9 532.72 3228.15 535.98 3225.04 540.12 3225.49 543.49 3228.91 546.19 3226.64 548.96 3225.54 552.17 3225.92 556.6 3222.53 558.14 3225.57 559.74 3229.74 563.62 3231.06 565.97 3231.59 568.27 3232.88 570.96 3234.62 574.09 3235.33 576.66 3237.32 580 3238.74 581.87 3240.41 582.47 3235.86 585.33 3233.74 588.55 3232.36 590.65 3229.49 593.13 3227.07 596.6 3226.91 598.97 3227.05 602.1 3225.81 604.64 3228.49 607.1 3229.26 611.58 3226.63 614.19 3231.8 618.27 3230.35 623.4 3230.67 624.86 3233.89 626.29 3236.19 628.25 3237.53 630.22 3240.15 633.03 3238.51 637.34 3240.78 640.91 3238.86 644.31 3239.25 647.6 3239.38 651.11 3239.57 654.76 3239.92 657.69 3242.8 659.13 3244.62 661.21 3246.55 662.75 3249.16 665.64 3250.87 667.54 3254.4 670.54 3256.22 673.88 3257.06 676.78 3254.31 680.28 3255.58 682.9 3253.61 683.59 3250.21 686.14 3247.35 689 3244.59 690.02 3240.68 691.9 3237.67 696.31 3239.12 697.3 3236.92 697.62 3237.97 699.2 3238.2 702.39 3239.41 705.73 3239.98 708.77 3240.01 711.73 3239.93 714.17 3239.5 714.39 3244.56 719.06 3245.53 719.98 3250.16 721.85 3254.08 720.3 3256.18 722.09 3255.54 720.3 3257.97 722.99 3257 725.95 3254.96 728.78 3252.31 730.54 3248.5 734.57 3247.91 735.87 3244.4 739.29 3243.25 739.09 3241.53 739.29 3241.47 738.86 3237.77 743.19 3239.01 745.99 3237.49 749.21 3236.65 752.74 3237.54 755.2 3234.26 758.69 3233.8 760.71 3239.5 764.05 3238.49 766.68 3237.73 769.99 3237.01 772.96 3235.32 775.24 3231.68 778.95 3234.58 781.9 3231.35 784.88 3234.93 788.2 3232.68 790.93 3235.39 794.03 3232.76 796.65 3232.9 799.25 3236.88 801.68 3236.3 804.48 3234.23 807.17 3236.66 810.06 3235.4 813.46 3236.87 816.11 3239.01 816.69 3241.14 819.92 3241.98 822.72 3243.12 826.43 3241.81 829.8 3239.69 833.64 3242.05 837.12 3241.16 841.79 3240.5 843.94 3238.34 846.69 3238.48 849.9 3236.91 852.13 3234.14 855.1 3233.46 858.01 3234.36 858.65 3237.82 859.01 3239.69 858.21 3242.53 858.65 3242.75 858.21 3244.32 861.68 3246 863.78 3248.3 864.15 3253.2 868.02 3253.33 870.88 3253.31 873.71 3256.2 876.8 3254.64 879.55 3257.38 882.74 3254.19 885.81 3252.05 886.68 3247.82 888.07 3244.95 891.05 3243.75 893.46 3245.59 895.93 3243.8 898.73 3243.53 901.41 3241.66 904.45 3242.94 907.35 3241.64 911.13 3242.64 913 3238.4 914.7 3235.84 916.19 3232.58 917.2 3235.06 917.82 3236.18 918.63 3239.83 923.18 3243.21 926.71 3241.25 929.91 3243.45 933.09 3241.43 933.5 3237.36 935 3233.62 938.71 3231.32 942.32 3229.19 945.86 3231.99 949.32 3232.72 952.32 3233.27 955.36 3232.97 958.43 3234.22 960.81 3231.02 963.87 3230.03 965.73 3227.92 966.83 3228.79 969.46 3227.38 972.21 3228.37 975.05 3227.53 979.63 3227.4 982.29 3230.16 985.12 3228.45 988.24 3227.93 991.48 3227.84 994.49 3225.89 997.78 3225.81 1000.58 3226.39 1002.89 3222.68 1005.33 3226.57 1007.29 3222.4 1009.8 3224.54 1012.32 3222.98 1015.04 3224.67 1017.76 3221.71 1020.88 3225.26 1024.5 3223.84 1027.52 3225.68 1029.4 3229.29 1033.77 3228.62 1034.46 3233.38 1037.53 3235.03 1038.2 3239.33 1041.81 3240.82 1043.37 3244.14 1045.85 3248.14 1048.73 3246.28 1051.12 3244.89 1053.86 3244.39 1056.62 3244.01 1059.38 3244.64 1060.99 3247.29 1063.37 3249.11 1064.46 3250.9 1064.44 3252 1064.47 3252.05 1064.44 3253.78 1066.41 3256.68 1067.64 3260 1070.83 3263.99 1071.26 3267.09 1073.69 3267.14 1076.85 3266.61 1079.01 3263.87 1079.42 3259.63 1083.24 3258.61 1086.16 3256.47 1086.77 3251.51 1090.73 3250.79 1093.19 3248.14 1096.09 3246.26 1098.21 3242.09 1101.66 3241.5 1104.93 3243.07 1107.62 3241.92 1109.95 3241.08 1113.57 3241.68 1117.27 3242.5 1118.28 3237.75 1122.45 3237.84 1123.59 3234.63 1125.32 3231.79 1130.09 3231.3 1132.7 3231.63 1135.49 3229.03 1138.3 3230.3 1141 3230.87 1142.81 3232.94 1146.18 3233.98 1148.06 3237.47 1151.88 3236.2 1154.16 3238.61 1156.45 3241.91 1159.54 3240.01 1161.13 3242.69 1164.04 3246.31 1166.11 3247.16 1167.76 3249.07 1170.54 3250.76 1173.07 3248.36 1176.38 3247.18 1179.55 3245.22 1182.95 3244.18 1186.31 3243.12 1189.53 3241.43 1193.22 3242.41 1196.73 3242.96 1200.28 3240.82 1203.29 3242.32 1205.8 3244.73 1209.42 3244.59 1213.04 3243.84 1215.44 3246.14 1218.24 3247.55 1221.11 3248.77 1223.87 3246.27 1226.67 3246.15 1229.42 3245.56 1233.2 3244.91 1237.52 3246.88 1241.05 3244.99 1243.47 3239.82 1246.23 3239.28 1249.1 3241.02 1252.13 3240.39 1255.32 3241.18 1258.18 3238.42 1260.63 3240.59 1263.43 3239.06 1267.46 3240.92 1271.29 3238.56 1274.51 3239.4 1277.34 3238.95 1281.64 3236.84 1284.42 3233.6 1288.46 3236.18 1292.59 3235.37 1294.35 3233.69 1296.75 3234.89 1299.19 3233.01 1301.87 3233.38 1304.55 3233.11 1307.24 3233.93 1309.8 3235.15 1312.91 3233.33 1315.48 3234.73 1318.54 3236.67 1321.86 3237.87 1323.87 3242.73 1327.28 3244.03 1331.22 3241.89 1333.6 3245.57 1336.65 3243.19 1339.38 3244.11 1342.82 3245.04 1344.43 3241.03 1347.7 3242.37 1350.67 3241.7 1353.05 3238.21 1356.77 3238.68 1359.76 3237.06 1361.61 3238 1364.52 3235.86 1367.21 3234.93 1370.33 3235.91 1370.16 3238.1 1370.3 3238.11 1370.16 3239.88 1374.24 3240.09 1375.14 3244.28 1377.94 3245.89 1382.65 3247 1386.17 3249.71 1387.73 3253.28 1387.98 3257.31 1387.97 3259.65 1387.97 3259.66 1387.97 3261.43 1389.28 3264.81 1393.25 3263.25 1397.5 3265.09 1399.9 3264.11 1401.17 3260.73 1405.91 3260.7 1406.63 3257.2 1407.21 3254.31 1409.64 3255.98 1413.24 3252.01 1416.26 3252.06 1419.28 3252.13 1422.31 3252.15 1425.76 3251.58 1428.21 3248.48 1429.12 3244.79 1433.06 3243.27 1435.73 3241.45 1436.98 3238.8 1439.5 3236.24 1442.14 3236.21 1445.05 3236.64 1448.15 3237.57 1450.39 3236.14 1452.84 3235.88 1455.17 3237.02 1458.17 3239.8 1459.18 3244.66 1463.18 3245.61 1466.73 3247.35 1470.79 3245.49 1474.09 3246.08 1478.08 3246.24 1480.4 3244.1 1483.66 3244.75 1486.21 3243.75 1487.93 3240 1491.79 3240.13 1492.42 3235.55 1495.04 3233.28 1498.34 3231.52 1501.6 3228.41 1505.74 3228.86 1509.11 3232.28 1511.82 3230.01 1514.58 3228.91 1517.79 3229.29 1522.22 3225.91 1523.76 3228.95 1525.36 3233.11 1529.24 3234.43 1531.59 3234.97 1533.89 3236.26 1536.58 3237.99 1539.71 3238.7 1542.28 3240.69 1545.62 3242.11 1547.49 3243.78 1548.09 3239.23 1550.95 3237.11 1554.17 3235.73 1556.27 3232.86 1558.76 3230.45 1562.22 3230.28 1564.59 3230.42 1567.72 3229.18 1570.26 3231.86 1572.72 3232.63 1577.2 3230 1579.81 3235.17 1583.89 3233.73 1589.02 3234.04 1590.48 3237.26 1591.91 3239.56 1593.87 3240.9 1595.84 3243.53 1598.65 3241.89 1602.96 3244.16 1606.53 3242.24 1609.93 3242.63 1613.22 3242.76 1616.73 3242.94 1620.38 3243.29 1623.31 3246.17 1624.75 3247.99 1626.83 3249.92 1628.37 3252.53 1631.26 3254.25 1633.16 3257.77 1636.16 3259.59 1639.5 3260.43 1642.4 3257.68 1645.9 3258.95 1648.53 3256.98 1649.21 3253.59 1651.76 3250.73 1654.62 3247.96 1655.64 3244.05 1657.53 3241.04 1661.93 3242.49 1662.92 3240.29 1663.24 3241.35 1664.82 3241.57 1668.01 3242.78 1671.35 3243.36 1674.39 3243.39 1677.35 3243.31 1679.79 3242.87 1680.01 3247.93 1684.68 3248.9 1685.6 3253.53 1687.47 3257.46 1685.92 3259.56 1687.71 3258.91 1685.92 3261.34 1688.61 3260.37 1691.57 3258.33 1694.4 3255.68 1696.16 3251.88 1700.19 3251.29 1701.49 3247.78 1704.91 3246.62 1704.71 3244.91 1704.91 3244.84 1704.48 3241.14 1708.82 3242.38 1711.61 3240.87 1714.83 3240.03 1718.36 3240.91 1720.82 3237.63 1724.31 3237.17 1726.33 3242.87 1729.68 3241.86 1732.3 3241.1 1735.61 3240.38 1738.58 3238.69 1740.86 3235.05 1744.57 3237.95 1747.52 3234.72 1750.5 3238.31 1753.82 3236.06 1756.55 3238.77 1759.65 3236.13 1762.27 3236.28 1764.87 3240.26 1767.3 3239.68 1770.1 3237.61 1772.79 3240.03 1775.68 3238.78 1779.08 3240.25 1781.73 3242.38 1782.31 3244.51 1785.54 3245.35 1788.34 3246.49 1792.05 3245.18 1795.42 3243.07 1799.26 3245.42 1802.74 3244.54 1807.41 3243.87 1809.56 3241.71 1812.32 3241.86 1815.52 3240.28 1817.75 3237.52 1820.72 3236.83 1823.63 3237.73 1824.27 3241.19 1824.63 3243.07 1823.83 3245.91 1824.27 3246.12 1823.83 3247.69 1827.3 3249.37 1829.41 3251.67 1829.77 3256.57 1833.64 3256.7 1836.51 3256.68 1839.33 3259.57 1842.42 3258.01 1845.17 3260.75 1848.36 3257.56 1851.43 3255.43 1852.3 3251.19 1853.69 3248.32 1856.67 3247.12 1859.08 3248.97 1861.55 3247.17 1864.35 3246.9 1867.03 3245.03 1870.07 3246.32 1872.97 3245.01 1876.75 3246.01 1878.62 3241.77 1880.32 3239.21 1881.81 3235.96 1882.82 3238.43 1883.44 3239.55 1884.25 3243.21 1888.8 3246.58 1892.33 3244.62 1895.53 3246.82 1898.71 3244.8 1899.12 3240.73 1900.62 3237 1904.33 3234.69 1907.94 3232.56 1911.48 3235.36 1914.94 3236.09 1917.94 3236.64 1920.98 3236.34 1922 3236.76 1922 3234.97 1922 3217.52 1922 3215.74 1922 3215.58 1922 3132 1922 3117 1922 157.14 1922 147 1922 76.04 1922 74.26 1922 65.45 1922 63.67 1922 62.92 1922 61.14 1922 60.45 1922 51.47 1922 49.69 1920.79 48.72"/></svg>